<?xml version="1.0" standalone="no"?>
<!DOCTYPE svg PUBLIC "-//W3C//DTD SVG 1.1//EN" "http://www.w3.org/Graphics/SVG/1.1/DTD/svg11.dtd" >
<svg xmlns="http://www.w3.org/2000/svg">
<metadata>Generated by IcoMoon</metadata>
<defs>
<font id="CovisionIconFont" horiz-adv-x="1024">
<font-face units-per-em="1024" ascent="960" descent="-64" />
<missing-glyph horiz-adv-x="1024" />
<glyph unicode="&#x20;" horiz-adv-x="512" d="" />
<glyph unicode="&#xe900;" glyph-name="address_card" d="M128 42.667c-70.692 0-128 57.308-128 128v0 512c0 70.692 57.308 128 128 128v0h768c70.692 0 128-57.308 128-128v0-512c0-70.692-57.308-128-128-128v0zM85.333 682.667v-512c0-23.564 19.103-42.667 42.667-42.667v0h768c23.564 0 42.667 19.103 42.667 42.667v0 512c0 23.564-19.103 42.667-42.667 42.667v0h-768c-23.564 0-42.667-19.103-42.667-42.667v0zM170.667 213.334c-0.076 0-0.166-0.001-0.257-0.001-23.423 0-42.411 18.988-42.411 42.411 0 0.090 0 0.18 0.001 0.271v-0.014 42.667c0 47.128 38.205 85.333 85.333 85.333v0h213.333c47.128 0 85.333-38.205 85.333-85.333v0-42.667c0-23.564-19.103-42.667-42.667-42.667v0zM597.333 266.667c-17.673 0-32 14.327-32 32s14.327 32 32 32v0h213.333c17.673 0 32-14.327 32-32s-14.327-32-32-32v0zM597.333 394.667c-17.673 0-32 14.327-32 32s14.327 32 32 32v0h213.333c17.673 0 32-14.327 32-32s-14.327-32-32-32v0zM213.333 533.163c0 58.91 47.756 106.667 106.667 106.667s106.667-47.756 106.667-106.667c0-58.91-47.756-106.667-106.667-106.667v0c0 0 0 0 0 0-58.91 0-106.667 47.756-106.667 106.667 0 0.060 0 0.12 0 0.18v-0.009zM597.333 522.667c-17.673 0-32 14.327-32 32s14.327 32 32 32v0h213.333c17.673 0 32-14.327 32-32s-14.327-32-32-32v0z" />
<glyph unicode="&#xe901;" glyph-name="angle_down" d="M256 537.003c0.005 23.56 19.106 42.658 42.667 42.658 11.78 0 22.445-4.774 30.165-12.492l183.168-183.168 183.168 183.168c7.665 7.41 18.12 11.977 29.641 11.977 23.564 0 42.667-19.103 42.667-42.667 0-11.521-4.567-21.976-11.989-29.653l-213.321-213.321c-7.721-7.718-18.386-12.492-30.165-12.492s-22.445 4.774-30.165 12.492l-213.333 213.333c-7.722 7.719-12.499 18.384-12.501 30.165v0.001z" />
<glyph unicode="&#xe902;" glyph-name="angle_left" d="M597.333 170.667c-11.781 0.003-22.446 4.78-30.165 12.501l-213.333 213.333c-7.718 7.721-12.492 18.386-12.492 30.165s4.774 22.445 12.492 30.165l213.333 213.333c7.665 7.41 18.12 11.977 29.641 11.977 23.564 0 42.667-19.103 42.667-42.667 0-11.521-4.567-21.976-11.989-29.653l-183.156-183.156 183.168-183.168c7.718-7.721 12.492-18.386 12.492-30.165 0-23.561-19.097-42.661-42.657-42.667h-0.001z" />
<glyph unicode="&#xe903;" glyph-name="angle_right" d="M426.667 170.667c-23.56 0.005-42.658 19.106-42.658 42.667 0 11.78 4.774 22.445 12.492 30.165l183.168 183.168-183.168 183.168c-7.41 7.665-11.977 18.12-11.977 29.641 0 23.564 19.103 42.667 42.667 42.667 11.521 0 21.976-4.567 29.653-11.989l213.321-213.321c7.718-7.721 12.492-18.386 12.492-30.165s-4.774-22.445-12.492-30.165l-213.333-213.333c-7.719-7.722-18.384-12.499-30.165-12.501h-0.001z" />
<glyph unicode="&#xe904;" glyph-name="angle_up" d="M256 316.331c0.005-23.56 19.106-42.658 42.667-42.658 11.78 0 22.445 4.774 30.165 12.492l183.168 183.168 183.168-183.168c7.665-7.41 18.12-11.977 29.641-11.977 23.564 0 42.667 19.103 42.667 42.667 0 11.521-4.567 21.976-11.989 29.653l-213.321 213.321c-7.721 7.718-18.386 12.492-30.165 12.492s-22.445-4.774-30.165-12.492l-213.333-213.333c-7.722-7.719-12.499-18.384-12.501-30.165v-0.001z" />
<glyph unicode="&#xe905;" glyph-name="angles_left" d="M512 170.667c-11.781 0.003-22.446 4.78-30.165 12.501l-213.333 213.333c-7.718 7.721-12.492 18.386-12.492 30.165s4.774 22.445 12.492 30.165l213.333 213.333c7.665 7.41 18.12 11.977 29.641 11.977 23.564 0 42.667-19.103 42.667-42.667 0-11.521-4.567-21.976-11.989-29.653l-183.156-183.156 183.168-183.168c7.718-7.721 12.492-18.386 12.492-30.165 0-23.561-19.097-42.661-42.657-42.667h-0.001zM725.333 170.667c-11.781 0.003-22.446 4.78-30.165 12.501l-213.333 213.333c-7.718 7.721-12.492 18.386-12.492 30.165s4.774 22.445 12.492 30.165l213.333 213.333c7.665 7.41 18.12 11.977 29.641 11.977 23.564 0 42.667-19.103 42.667-42.667 0-11.521-4.567-21.976-11.989-29.653l-183.156-183.156 183.168-183.168c7.718-7.721 12.492-18.386 12.492-30.165 0-23.561-19.097-42.661-42.657-42.667h-0.001z" />
<glyph unicode="&#xe906;" glyph-name="angles_right" d="M512 170.667c-23.56 0.005-42.658 19.106-42.658 42.667 0 11.78 4.774 22.445 12.492 30.165l183.168 183.168-183.168 183.168c-7.41 7.665-11.977 18.12-11.977 29.641 0 23.564 19.103 42.667 42.667 42.667 11.521 0 21.976-4.567 29.653-11.989l213.321-213.321c7.718-7.721 12.492-18.386 12.492-30.165s-4.774-22.445-12.492-30.165l-213.333-213.333c-7.719-7.722-18.384-12.499-30.165-12.501h-0.001zM298.667 170.667c-23.56 0.005-42.658 19.106-42.658 42.667 0 11.78 4.774 22.445 12.492 30.165l183.168 183.168-183.168 183.168c-7.41 7.665-11.977 18.12-11.977 29.641 0 23.564 19.103 42.667 42.667 42.667 11.521 0 21.976-4.567 29.653-11.989l213.321-213.321c7.718-7.721 12.492-18.386 12.492-30.165s-4.774-22.445-12.492-30.165l-213.333-213.333c-7.719-7.722-18.384-12.499-30.165-12.501h-0.001z" />
<glyph unicode="&#xe907;" glyph-name="app" d="M597.333 42.667c-23.564 0-42.667 19.103-42.667 42.667v0 256c0 23.564 19.103 42.667 42.667 42.667v0h256c23.564 0 42.667-19.103 42.667-42.667v0-256c0-23.564-19.103-42.667-42.667-42.667v0zM640 128h170.667v170.667h-170.667zM170.667 42.667c-23.564 0-42.667 19.103-42.667 42.667v0 256c0 23.564 19.103 42.667 42.667 42.667v0h256c23.564 0 42.667-19.103 42.667-42.667v0-256c0-23.564-19.103-42.667-42.667-42.667v0zM213.333 128h170.667v170.667h-170.667zM597.333 469.334c-23.564 0-42.667 19.103-42.667 42.667v0 256c0 23.564 19.103 42.667 42.667 42.667v0h256c23.564 0 42.667-19.103 42.667-42.667v0-256c0-23.564-19.103-42.667-42.667-42.667v0zM640 554.667h170.667v170.667h-170.667zM170.667 469.334c-23.564 0-42.667 19.103-42.667 42.667v0 256c0 23.564 19.103 42.667 42.667 42.667v0h256c23.564 0 42.667-19.103 42.667-42.667v0-256c0-23.564-19.103-42.667-42.667-42.667v0zM213.333 554.667h170.667v170.667h-170.667z" />
<glyph unicode="&#xe908;" glyph-name="arrow" d="M512-0h-4.011c-3.687 0.357-7.073 1.126-10.282 2.269l0.298-0.093-0.811 0.299h-0.256l-0.597 0.256h-0.896l-0.683 0.299c-4.853 2.189-9.004 5.057-12.55 8.54l-127.994 127.994c-7.718 7.721-12.492 18.386-12.492 30.165s4.774 22.445 12.492 30.165v0c7.723 7.731 18.396 12.514 30.187 12.514s22.464-4.782 30.186-12.513l55.126-55.168v239.275h-238.293l55.125-55.125c7.731-7.723 12.514-18.396 12.514-30.187s-4.782-22.464-12.513-30.186v0c-7.717-7.698-18.369-12.459-30.132-12.459-0.012 0-0.024 0-0.035 0h0.002c-0.010 0-0.022 0-0.034 0-11.763 0-22.414 4.76-30.133 12.46l-127.999 127.999c-2.12 2.124-4.019 4.471-5.658 7.001l-0.571 0.935-0.384 0.64-0.213 0.384-0.256 0.427-0.341 0.597v0.213c-3.29 5.749-5.295 12.607-5.46 19.919l-0.001 0.049c0.026 11.899 4.919 22.65 12.793 30.372l128.007 128.007c7.721 7.718 18.386 12.492 30.165 12.492s22.445-4.774 30.165-12.492v0c7.718-7.721 12.492-18.386 12.492-30.165s-4.774-22.445-12.492-30.165l-55.168-55.168h238.037v238.336l-55.125-55.168c-7.723-7.731-18.396-12.514-30.187-12.514s-22.464 4.782-30.186 12.513v0c-7.731 7.723-12.514 18.396-12.514 30.187s4.782 22.464 12.513 30.186l129.707 129.451c7.543 6.858 17.61 11.056 28.657 11.056 11.787 0 22.458-4.78 30.18-12.507l128-128c7.731-7.723 12.514-18.396 12.514-30.187s-4.782-22.464-12.513-30.186v0c-7.717-7.698-18.369-12.459-30.132-12.459-0.012 0-0.024 0-0.035 0h0.002c-0.010 0-0.022 0-0.034 0-11.763 0-22.414 4.76-30.133 12.46l-55.167 55.167v-238.549h238.336l-55.168 55.168c-7.718 7.721-12.492 18.386-12.492 30.165s4.774 22.445 12.492 30.165v0c7.723 7.731 18.396 12.514 30.187 12.514s22.464-4.782 30.186-12.513v0l128-128c7.731-7.723 12.514-18.396 12.514-30.187s-4.782-22.464-12.513-30.186v0l-128-128c-7.717-7.698-18.369-12.459-30.132-12.459-0.027 0-0.054 0-0.080 0h0.004c-0.010 0-0.022 0-0.034 0-11.763 0-22.414 4.76-30.133 12.46l0.001-0.001c-7.731 7.723-12.514 18.396-12.514 30.187s4.782 22.464 12.513 30.186l55.168 55.126h-238.549v-238.336l55.168 55.168c7.721 7.718 18.386 12.492 30.165 12.492s22.445-4.774 30.165-12.492v0c7.718-7.721 12.492-18.386 12.492-30.165s-4.774-22.445-12.492-30.165l-128-128c-3.608-3.497-7.848-6.369-12.526-8.426l-0.274-0.107-0.853-0.384h-0.213l-0.683-0.256h-0.896l-0.597-0.213h-0.299l-0.725-0.256-0.853-0.256c-1.659-0.522-3.676-0.983-5.742-1.294l-0.231-0.029h-6.272z" />
<glyph unicode="&#xe909;" glyph-name="arrow_circle_down" d="M512 853.334c235.534-0.267 426.4-191.133 426.667-426.641v-0.025c-0.267-235.534-191.133-426.4-426.641-426.667h-0.025c-235.534 0.267-426.4 191.133-426.667 426.641v0.025c0.267 235.534 191.133 426.4 426.641 426.667h0.025zM512 768c-188.416-0.243-341.091-152.918-341.333-341.31v-0.023c0.243-188.416 152.918-341.091 341.31-341.333h0.023c188.425 0.218 341.115 152.908 341.333 341.312v0.021c-0.218 188.425-152.908 341.115-341.312 341.333h-0.021zM311.168 456.79c7.721 7.718 18.386 12.492 30.165 12.492s22.445-4.774 30.165-12.492l97.835-97.792v238.336c0 23.564 19.103 42.667 42.667 42.667v0c23.564 0 42.667-19.103 42.667-42.667v0-238.336l97.835 97.792c7.721 7.718 18.386 12.492 30.165 12.492s22.445-4.774 30.165-12.492v0c7.718-7.721 12.492-18.386 12.492-30.165s-4.774-22.445-12.492-30.165l-170.667-170.667c-1.547-1.51-3.218-2.911-4.991-4.179l-0.129-0.088-0.811-0.597-0.768-0.512-0.725-0.469-0.683-0.427-0.725-0.427-0.768-0.427-0.811-0.427-0.853-0.427-0.896-0.427c-3.467-1.54-7.488-2.667-11.699-3.18l-0.205-0.020c-0.299 0-0.64 0-0.939 0s0 0 0 0-0.555 0-0.853 0-0.213 0-0.341 0-0.469 0-0.683 0-0.341 0-0.512 0-0.341 0-0.512 0-0.683 0-1.067 0-0.683 0-1.067 0-0.384 0-0.555 0-0.299 0-0.469 0-0.512 0-0.768 0h-0.256c-0.299 0-0.64 0-0.939 0v0c-4.407 0.432-8.455 1.475-12.226 3.047l0.28-0.103-0.853 0.384-0.683 0.341h-0.341l-0.555 0.256-0.469 0.256h-0.384l-0.64 0.341h-0.213l-0.725 0.427c-3.394 1.969-6.322 4.232-8.917 6.827l-170.667 170.667c-7.722 7.719-12.499 18.384-12.501 30.165v0.001c-0.017 0.447-0.026 0.972-0.026 1.499 0 10.991 4.156 21.012 10.982 28.576l-0.033-0.038z" />
<glyph unicode="&#xe90a;" glyph-name="arrow_circle_left" d="M938.667 426.667c-0.267-235.534-191.133-426.4-426.641-426.667h-0.025c-235.534 0.267-426.4 191.133-426.667 426.641v0.025c0.267 235.534 191.133 426.4 426.641 426.667h0.025c235.534-0.267 426.4-191.133 426.667-426.641v-0.025zM853.333 426.667c-0.243 188.416-152.918 341.091-341.31 341.333h-0.023c-188.416-0.243-341.091-152.918-341.333-341.31v-0.023c0.218-188.425 152.908-341.115 341.312-341.333h0.021c188.425 0.218 341.115 152.908 341.333 341.312v0.021zM542.123 627.499c7.718-7.721 12.492-18.386 12.492-30.165s-4.774-22.445-12.492-30.165l-97.792-97.835h238.336c23.564 0 42.667-19.103 42.667-42.667v0c0-23.564-19.103-42.667-42.667-42.667v0h-238.336l97.792-97.835c7.718-7.721 12.492-18.386 12.492-30.165s-4.774-22.445-12.492-30.165v0c-7.721-7.718-18.386-12.492-30.165-12.492s-22.445 4.774-30.165 12.492l-170.667 170.667c-1.51 1.547-2.911 3.218-4.179 4.991l-0.088 0.129-0.597 0.811-0.512 0.768-0.469 0.725-0.427 0.683-0.427 0.725-0.427 0.768-0.427 0.811-0.427 0.853-0.427 0.896c-1.54 3.467-2.667 7.488-3.18 11.699l-0.020 0.205c0 0.299 0 0.64 0 0.939s0 0 0 0 0 0.555 0 0.853 0 0.213 0 0.341 0 0.469 0 0.683 0 0.341 0 0.512 0 0.341 0 0.512 0 0.683 0 1.067 0 0.683 0 1.067 0 0.384 0 0.555 0 0.299 0 0.469 0 0.512 0 0.768v0.256c0 0.299 0 0.64 0 0.939v0c0.432 4.407 1.475 8.455 3.047 12.226l-0.103-0.28 0.384 0.853 0.341 0.683v0.341l0.256 0.555 0.256 0.469v0.384l0.341 0.64v0.213l0.427 0.725c1.969 3.394 4.232 6.322 6.827 8.917l170.667 170.667c7.719 7.722 18.384 12.499 30.165 12.501h0.001c0.447 0.017 0.972 0.026 1.499 0.026 10.991 0 21.012-4.156 28.576-10.982l-0.038 0.033z" />
<glyph unicode="&#xe90b;" glyph-name="arrow_circle_right" d="M85.333 426.667c0.267 235.534 191.133 426.4 426.641 426.667h0.025c235.534-0.267 426.4-191.133 426.667-426.641v-0.025c-0.267-235.534-191.133-426.4-426.641-426.667h-0.025c-235.534 0.267-426.4 191.133-426.667 426.641v0.025zM170.667 426.667c0.243-188.416 152.918-341.091 341.31-341.333h0.023c188.416 0.243 341.091 152.918 341.333 341.31v0.023c-0.218 188.425-152.908 341.115-341.312 341.333h-0.021c-188.425-0.218-341.115-152.908-341.333-341.312v-0.021zM481.877 225.835c-7.718 7.721-12.492 18.386-12.492 30.165s4.774 22.445 12.492 30.165l97.792 97.835h-238.336c-23.564 0-42.667 19.103-42.667 42.667v0c0 23.564 19.103 42.667 42.667 42.667v0h238.336l-97.792 97.835c-7.718 7.721-12.492 18.386-12.492 30.165s4.774 22.445 12.492 30.165v0c7.721 7.718 18.386 12.492 30.165 12.492s22.445-4.774 30.165-12.492l170.667-170.667c1.51-1.547 2.911-3.218 4.179-4.991l0.088-0.129 0.597-0.811 0.512-0.768 0.469-0.725 0.427-0.683 0.427-0.725 0.427-0.768 0.427-0.811 0.427-0.853 0.427-0.896c1.54-3.467 2.667-7.488 3.18-11.699l0.020-0.205c0-0.299 0-0.64 0-0.939s0 0 0 0 0-0.555 0-0.853 0-0.213 0-0.341 0-0.469 0-0.683 0-0.341 0-0.512 0-0.341 0-0.512 0-0.683 0-1.067 0-0.683 0-1.067 0-0.384 0-0.555 0-0.299 0-0.469 0-0.512 0-0.768v-0.256c0-0.299 0-0.64 0-0.939v0c-0.432-4.407-1.475-8.455-3.047-12.226l0.103 0.28-0.384-0.853-0.341-0.683v-0.341l-0.256-0.555-0.256-0.469v-0.384l-0.341-0.64v-0.213l-0.427-0.725c-1.969-3.394-4.232-6.322-6.827-8.917l-170.667-170.667c-7.719-7.722-18.384-12.499-30.165-12.501h-0.001c-0.447-0.017-0.972-0.026-1.499-0.026-10.991 0-21.012 4.156-28.576 10.982l0.038-0.033z" />
<glyph unicode="&#xe90c;" glyph-name="arrow_circle_up" d="M512-0c-235.534 0.267-426.4 191.133-426.667 426.641v0.025c0.267 235.534 191.133 426.4 426.641 426.667h0.025c235.534-0.267 426.4-191.133 426.667-426.641v-0.025c-0.267-235.534-191.133-426.4-426.641-426.667h-0.025zM512 85.334c188.416 0.243 341.091 152.918 341.333 341.31v0.023c-0.243 188.416-152.918 341.091-341.31 341.333h-0.023c-188.425-0.218-341.115-152.908-341.333-341.312v-0.021c0.218-188.425 152.908-341.115 341.312-341.333h0.021zM712.832 396.544c-7.721-7.718-18.386-12.492-30.165-12.492s-22.445 4.774-30.165 12.492l-97.835 97.792v-238.336c0-23.564-19.103-42.667-42.667-42.667v0c-23.564 0-42.667 19.103-42.667 42.667v0 238.336l-97.835-97.792c-7.721-7.718-18.386-12.492-30.165-12.492s-22.445 4.774-30.165 12.492v0c-7.718 7.721-12.492 18.386-12.492 30.165s4.774 22.445 12.492 30.165l170.667 170.667c1.547 1.51 3.218 2.911 4.991 4.179l0.129 0.088 0.811 0.597 0.768 0.512 0.725 0.469 0.683 0.427 0.725 0.427 0.768 0.427 0.811 0.427 0.853 0.427 0.896 0.427c3.467 1.54 7.488 2.667 11.699 3.18l0.205 0.020c0.299 0 0.64 0 0.939 0s0 0 0 0 0.555 0 0.853 0 0.213 0 0.341 0 0.469 0 0.683 0 0.341 0 0.512 0 0.341 0 0.512 0 0.683 0 1.067 0 0.683 0 1.067 0 0.384 0 0.555 0 0.299 0 0.469 0 0.512 0 0.768 0h0.256c0.299 0 0.64 0 0.939 0v0c4.407-0.432 8.455-1.475 12.226-3.047l-0.28 0.103 0.853-0.384 0.683-0.341h0.341l0.555-0.256 0.469-0.256h0.384l0.64-0.341h0.213l0.725-0.427c3.394-1.969 6.322-4.232 8.917-6.827l170.667-170.667c7.722-7.719 12.499-18.384 12.501-30.165v-0.001c0.017-0.447 0.026-0.972 0.026-1.499 0-10.991-4.156-21.012-10.982-28.576l0.033 0.038z" />
<glyph unicode="&#xe90d;" glyph-name="arrow_down" d="M543.573 99.456l297.429 297.344c8.488 7.761 13.792 18.882 13.792 31.243 0 23.352-18.931 42.283-42.283 42.283-12.361 0-23.482-5.304-31.214-13.76l-0.029-0.032-226.859-226.816v496.043c0 23.352-18.931 42.283-42.283 42.283s-42.283-18.931-42.283-42.283v0-496.085l-226.859 226.859c-7.414 6.542-17.213 10.535-27.943 10.535-23.376 0-42.325-18.95-42.325-42.325 0-10.731 3.993-20.529 10.575-27.989l-0.040 0.046 298.965-299.051c0.469-0.512 0.939-0.981 1.451-1.408 0.164-0.108 0.305-0.235 0.424-0.381l0.003-0.003 1.237-1.024 0.427-0.341 1.237-1.024 1.749-1.237c6.555-4.39 14.621-7.006 23.297-7.006 12.515 0 23.759 5.443 31.494 14.090l0.036 0.041z" />
<glyph unicode="&#xe90e;" glyph-name="arrow_down_left_to_square" d="M250.411 42.667c-67.557 0.121-122.289 54.854-122.411 122.399v437.943c0.024 67.596 54.815 122.386 122.408 122.411h176.258c23.564 0 42.667-19.103 42.667-42.667s-19.103-42.667-42.667-42.667v0h-176.341c-0.051 0-0.111 0-0.171 0-20.336 0-36.821-16.485-36.821-36.821 0-0.060 0-0.12 0-0.18v0.009-437.931c0-0.013 0-0.028 0-0.043 0-20.407 16.543-36.949 36.949-36.949 0.015 0 0.030 0 0.045 0h437.843c0.013 0 0.028 0 0.043 0 20.407 0 36.949 16.543 36.949 36.949 0 0.015 0 0.030 0 0.045v-0.002 176.171c0 23.564 19.103 42.667 42.667 42.667s42.667-19.103 42.667-42.667v0-176.341c-0.145-67.577-54.912-122.314-122.487-122.411h-0.009zM384.085 256c-23.564 0-42.667 19.103-42.667 42.667v0 256c0 23.564 19.103 42.667 42.667 42.667s42.667-19.103 42.667-42.667v0-152.832l353.749 353.664c7.731 7.731 18.411 12.513 30.208 12.513 23.594 0 42.721-19.127 42.721-42.721 0-11.797-4.782-22.477-12.513-30.208v0l-354.133-353.749h153.173c23.564 0 42.667-19.103 42.667-42.667s-19.103-42.667-42.667-42.667v0z" />
<glyph unicode="&#xe90f;" glyph-name="arrow_down_long" d="M553.856 725.888v-496.171l57.173 57.728c7.554 7.648 18.040 12.384 29.632 12.384s22.078-4.737 29.628-12.38l0.004-0.004c7.542-7.69 12.197-18.235 12.197-29.867s-4.655-22.177-12.203-29.874l0.007 0.007-128.725-129.877c-7.554-7.65-18.042-12.388-29.636-12.388-5.088 0-9.964 0.913-14.471 2.583l0.288-0.094h-0.256c-0.693 0.233-1.257 0.464-1.804 0.724l0.097-0.042-1.664 0.768-0.256 0.256-1.493 0.725-0.299 0.299-1.408 0.811-0.341 0.341-1.237 0.853-0.427 0.427-1.152 0.811-0.597 0.597h-1.579l-131.755 132.949c-7.542 7.69-12.197 18.235-12.197 29.867s4.655 22.177 12.203 29.874l-0.007-0.007c7.554 7.648 18.040 12.384 29.632 12.384s22.078-4.737 29.628-12.38l0.004-0.004 57.173-57.728v496.299c0 0.014 0 0.031 0 0.047 0 11.634 4.694 22.171 12.29 29.822l-0.002-0.002c7.554 7.648 18.040 12.384 29.632 12.384s22.078-4.737 29.628-12.38l0.004-0.004c7.466-7.556 12.077-17.946 12.077-29.413 0-0.159-0.001-0.319-0.003-0.477v0.024z" />
<glyph unicode="&#xe910;" glyph-name="arrow_left" d="M184.789 458.24l297.429 297.429c7.761 8.488 18.882 13.792 31.243 13.792 23.352 0 42.283-18.931 42.283-42.283 0-12.361-5.304-23.482-13.76-31.214l-0.032-0.029-226.944-226.731h496.043c23.352 0 42.283-18.931 42.283-42.283s-18.931-42.283-42.283-42.283v0h-496.085l226.987-226.816c6.542-7.414 10.535-17.213 10.535-27.943 0-23.376-18.95-42.325-42.325-42.325-10.731 0-20.529 3.993-27.989 10.575l0.046-0.040-299.136 299.093c-0.512 0.512-0.981 0.981-1.408 1.493-0.108 0.164-0.235 0.305-0.381 0.424l-0.003 0.003-1.024 1.237-0.341 0.427-0.981 1.237-1.067 1.579c-4.358 6.539-6.954 14.576-6.954 23.22 0 12.511 5.439 23.752 14.082 31.486l0.040 0.036z" />
<glyph unicode="&#xe911;" glyph-name="arrow_left_long" d="M811.221 468.523h-496.171l57.728 57.173c7.648 7.554 12.384 18.040 12.384 29.632s-4.737 22.078-12.38 29.628l-0.004 0.004c-7.69 7.542-18.235 12.197-29.867 12.197s-22.177-4.655-29.874-12.203l0.007 0.007-129.877-128.725c-7.65-7.554-12.388-18.042-12.388-29.636 0-5.088 0.913-9.964 2.583-14.471l-0.094 0.288v-0.256c0.232-0.692 0.463-1.256 0.724-1.803l-0.042 0.097 0.768-1.664 0.256-0.256 0.725-1.493 0.299-0.299 0.811-1.408 0.341-0.341 0.853-1.237 0.427-0.427 0.811-1.152 0.597-0.597v-1.579l132.949-131.755c7.69-7.542 18.235-12.197 29.867-12.197s22.177 4.655 29.874 12.203l-0.007-0.007c7.648 7.554 12.384 18.040 12.384 29.632s-4.737 22.078-12.38 29.628l-0.004 0.004-57.728 57.173h496c0.014 0 0.031 0 0.047 0 11.634 0 22.171 4.694 29.822 12.29l-0.002-0.002c7.648 7.554 12.384 18.040 12.384 29.632s-4.737 22.078-12.38 29.628l-0.004 0.004c-7.556 7.466-17.946 12.077-29.413 12.077-0.159 0-0.319-0.001-0.477-0.003h0.024z" />
<glyph unicode="&#xe912;" glyph-name="arrow_right" d="M839.211 458.24l-297.344 297.429c-7.761 8.488-18.882 13.792-31.243 13.792-23.352 0-42.283-18.931-42.283-42.283 0-12.361 5.304-23.482 13.76-31.214l0.032-0.029 226.816-226.859h-496.043c-23.352 0-42.283-18.931-42.283-42.283s18.931-42.283 42.283-42.283v0h496.085l-226.859-226.859c-6.542-7.414-10.535-17.213-10.535-27.943 0-23.376 18.95-42.325 42.325-42.325 10.731 0 20.529 3.993 27.989 10.575l-0.046-0.040 299.051 298.965c0.512 0.469 0.981 0.939 1.408 1.451 0.108 0.164 0.235 0.305 0.381 0.424l0.003 0.003 1.024 1.237 0.341 0.427 1.024 1.237 1.237 1.749c4.39 6.555 7.006 14.621 7.006 23.297 0 12.515-5.443 23.759-14.090 31.494l-0.041 0.036z" />
<glyph unicode="&#xe913;" glyph-name="arrow_right_long" d="M212.779 468.523h496.171l-57.728 57.173c-7.648 7.554-12.384 18.040-12.384 29.632s4.737 22.078 12.38 29.628l0.004 0.004c7.69 7.542 18.235 12.197 29.867 12.197s22.177-4.655 29.874-12.203l-0.007 0.007 129.877-128.725c7.65-7.554 12.388-18.042 12.388-29.636 0-5.088-0.913-9.964-2.583-14.471l0.094 0.288v-0.256c-0.233-0.693-0.464-1.257-0.724-1.804l0.042 0.097-0.768-1.664-0.256-0.256-0.725-1.493-0.299-0.299-0.811-1.408-0.341-0.341-0.853-1.237-0.427-0.427-0.811-1.152-0.597-0.597v-1.579l-132.949-131.755c-7.69-7.542-18.235-12.197-29.867-12.197s-22.177 4.655-29.874 12.203l0.007-0.007c-7.648 7.554-12.384 18.040-12.384 29.632s4.737 22.078 12.38 29.628l0.004 0.004 57.728 57.173h-496.299c-0.014 0-0.031 0-0.047 0-11.634 0-22.171 4.694-29.822 12.29l0.002-0.002c-7.648 7.554-12.384 18.040-12.384 29.632s4.737 22.078 12.38 29.628l0.004 0.004c7.556 7.466 17.946 12.077 29.413 12.077 0.159 0 0.319-0.001 0.477-0.003h-0.024z" />
<glyph unicode="&#xe914;" glyph-name="arrow_turn_down" d="M554.667 810.71c-117.762-0.146-213.188-95.571-213.333-213.319v-409.017l-140.501 140.501c-7.769 8.036-18.647 13.026-30.69 13.026-23.564 0-42.667-19.103-42.667-42.667 0-12.043 4.989-22.92 13.014-30.678l213.345-213.345c7.722-7.727 18.393-12.507 30.18-12.507 11.048 0 21.114 4.199 28.692 11.088l-0.035-0.031 1.707 1.664 213.333 213.333c7.41 7.665 11.977 18.12 11.977 29.641 0 23.564-19.103 42.667-42.667 42.667-11.521 0-21.976-4.567-29.653-11.989l-140.703-140.703v409.003c0 70.692 57.308 128 128 128v0h298.667c23.564 0 42.667 19.103 42.667 42.667s-19.103 42.667-42.667 42.667v0z" />
<glyph unicode="&#xe915;" glyph-name="arrow_turn_up" d="M554.667 42.624c-117.762 0.146-213.188 95.571-213.333 213.319v409.017l-140.501-140.501c-7.721-7.718-18.386-12.492-30.165-12.492s-22.445 4.774-30.165 12.492v0c-7.722 7.719-12.499 18.384-12.501 30.165v0.001c0.003 11.781 4.78 22.446 12.501 30.165l213.333 213.333c7.722 7.727 18.393 12.507 30.18 12.507 11.048 0 21.114-4.199 28.692-11.088l-0.035 0.031 1.707-1.664 213.333-213.333c7.718-7.721 12.492-18.386 12.492-30.165s-4.774-22.445-12.492-30.165v0c-7.721-7.718-18.386-12.492-30.165-12.492s-22.445 4.774-30.165 12.492l-140.501 140.501v-408.789c0-70.692 57.308-128 128-128v0h298.667c23.564 0 42.667-19.103 42.667-42.667v0c0-23.564-19.103-42.667-42.667-42.667v0z" />
<glyph unicode="&#xe916;" glyph-name="arrow_up" d="M543.573 753.878l297.429-297.344c8.488-7.761 13.792-18.882 13.792-31.243 0-23.352-18.931-42.283-42.283-42.283-12.361 0-23.482 5.304-31.214 13.76l-0.029 0.032-226.731 226.944v-496.171c0-23.352-18.931-42.283-42.283-42.283s-42.283 18.931-42.283 42.283v0 496.085l-226.987-226.859c-7.414-6.542-17.213-10.535-27.943-10.535-23.376 0-42.325 18.95-42.325 42.325 0 10.731 3.993 20.529 10.575 27.989l-0.040-0.046 298.923 299.051c0.512 0.512 0.981 0.981 1.493 1.408 0.164 0.108 0.305 0.235 0.424 0.381l0.003 0.003 1.237 1.024 0.427 0.341 1.237 0.981 1.579 1.067c6.539 4.358 14.576 6.954 23.22 6.954 12.511 0 23.752-5.439 31.486-14.082l0.036-0.040z" />
<glyph unicode="&#xe917;" glyph-name="arrow_up_long" d="M553.856 127.446v496.171l57.173-57.728c7.554-7.648 18.040-12.384 29.632-12.384s22.078 4.737 29.628 12.38l0.004 0.004c7.542 7.69 12.197 18.235 12.197 29.867s-4.655 22.177-12.203 29.874l0.007-0.007-128.341 129.963c-7.554 7.65-18.042 12.388-29.636 12.388-5.088 0-9.964-0.913-14.471-2.583l0.288 0.094h-0.256c-0.693-0.233-1.257-0.464-1.804-0.724l0.097 0.042-2.005-1.067h-0.213l-1.493-0.725-0.299-0.299-1.408-0.896-0.341-0.341-1.237-0.853-0.427-0.427-1.152-0.725-0.597-0.597h-1.579l-131.712-133.205c-7.542-7.69-12.197-18.235-12.197-29.867s4.655-22.177 12.203-29.874l-0.007 0.007c7.554-7.648 18.040-12.384 29.632-12.384s22.078 4.737 29.628 12.38l0.004 0.004 57.173 57.728v-496.128c0-0.014 0-0.031 0-0.047 0-11.634 4.694-22.171 12.29-29.822l-0.002 0.002c7.554-7.648 18.040-12.384 29.632-12.384s22.078 4.737 29.628 12.38l0.004 0.004c7.466 7.556 12.077 17.946 12.077 29.413 0 0.159-0.001 0.319-0.003 0.477v-0.024z" />
<glyph unicode="&#xe918;" glyph-name="arrow_up_right_from_square" d="M250.411 42.667c-67.557 0.121-122.289 54.854-122.411 122.399v437.943c0.024 67.596 54.815 122.386 122.408 122.411h218.925c23.564 0 42.667-19.103 42.667-42.667s-19.103-42.667-42.667-42.667v0h-218.837c-0.051 0-0.111 0-0.171 0-20.336 0-36.821-16.485-36.821-36.821 0-0.060 0-0.12 0-0.18v0.009-437.931c0-0.013 0-0.028 0-0.043 0-20.407 16.543-36.949 36.949-36.949 0.015 0 0.030 0 0.045 0h437.843c0.013 0 0.028 0 0.043 0 20.407 0 36.949 16.543 36.949 36.949 0 0.015 0 0.030 0 0.045v-0.002 218.837c0 23.564 19.103 42.667 42.667 42.667s42.667-19.103 42.667-42.667v0-219.093c-0.145-67.577-54.912-122.314-122.487-122.411h-0.009zM439.253 353.92c-7.693 7.716-12.45 18.364-12.45 30.123s4.757 22.406 12.451 30.124l311.082 311.252h-153.003c-23.564 0-42.667 19.103-42.667 42.667s19.103 42.667 42.667 42.667v0h256c10.92-0.004 20.87-4.151 28.366-10.954l-0.035 0.031s0 0 0 0l1.323-1.237 0.256-0.256c0-0.256 0.427-0.427 0.597-0.683 4.398-4.616 7.794-10.229 9.813-16.462l0.086-0.306s0 0 0-0.256l0.512-1.579c-0.023-0.064-0.037-0.137-0.037-0.213s0.013-0.15 0.038-0.218l-0.001 0.004c0-0.512 0.256-0.981 0.341-1.493-0.015-0.103-0.023-0.221-0.023-0.341s0.008-0.239 0.024-0.355l-0.002 0.013c0.022-0.198 0.034-0.428 0.034-0.661s-0.012-0.463-0.036-0.69l0.002 0.028c0.015-0.103 0.023-0.221 0.023-0.341s-0.008-0.239-0.024-0.355l0.002 0.013c0-0.512 0-0.896 0-1.323s0-0.597 0-0.853c0.020-0.211 0.031-0.456 0.031-0.704s-0.011-0.493-0.033-0.735l0.002 0.031c0.020-0.103 0.032-0.221 0.032-0.341s-0.012-0.239-0.034-0.353l0.002 0.012c0-0.683 0-1.408 0-2.176v-256c0-23.564-19.103-42.667-42.667-42.667s-42.667 19.103-42.667 42.667v0 153.173l-311.467-311.467c-7.689-7.719-18.326-12.495-30.080-12.495s-22.391 4.776-30.079 12.494l-0.001 0.001z" />
<glyph unicode="&#xe919;" glyph-name="at" d="M504.661-0.085c-232.426 4.173-419.243 193.571-419.243 426.602 0 235.641 191.025 426.667 426.667 426.667 235.619 0 426.63-190.988 426.667-426.598v-38.404c-0.021-87.172-70.692-157.831-157.867-157.831-45.028 0-85.652 18.851-114.412 49.092l-0.063 0.067c-38.937-40.855-93.768-66.261-154.534-66.261-117.821 0-213.333 95.513-213.333 213.333s95.513 213.333 213.333 213.333c44.111 0 85.096-13.388 119.112-36.323l-0.759 0.482c7.789 11.303 20.662 18.617 35.243 18.617 23.554 0 42.65-19.086 42.667-42.637v-69.506c10.899-24.775 17.243-53.657 17.243-84.021 0-24.207-4.032-47.471-11.46-69.16l0.447 1.501c11.568-25.618 36.891-43.125 66.304-43.125 40.010 0 72.454 32.395 72.533 72.387v38.408c-0.031 188.49-152.839 341.279-341.333 341.279-188.513 0-341.333-152.82-341.333-341.333s152.82-341.333 341.333-341.333c78.451 0 150.72 26.466 208.367 70.957l-0.793-0.589c7.504 6.705 17.461 10.803 28.375 10.803 23.564 0 42.667-19.103 42.667-42.667 0-14.828-7.564-27.89-19.045-35.537l-0.156-0.098c-71.095-54.865-161.413-87.992-259.462-88.149h-0.037zM384.085 426.582c0.149-70.58 57.399-127.738 128-127.738 48.261 0 90.284 26.709 112.093 66.152l0.334 0.658c-1.005 6.63-1.579 14.281-1.579 22.066 0 0.177 0 0.355 0.001 0.532v-0.027 102.187c-22.525 38.61-63.747 64.143-110.933 64.143-70.692 0-128-57.308-128-128 0-0.050 0-0.1 0-0.15v0.008z" />
<glyph unicode="&#xe91a;" glyph-name="baby" d="M246.741 107.392c-62.052 59.928-103.873 140.448-114.432 230.526l-0.171 1.794c-28.195 16.703-46.802 46.97-46.802 81.583 0 41.967 27.354 77.545 65.206 89.877l0.668 0.188c48.895 137.125 169.956 236.869 316.274 254.162l1.806 0.174v45.184c0 23.564 19.103 42.667 42.667 42.667s42.667-19.103 42.667-42.667v0-45.184c148.099-17.529 269.132-117.247 317.244-251.659l0.836-2.677c38.525-12.469 65.895-48.027 65.895-89.978 0-34.704-18.731-65.034-46.635-81.43l-0.443-0.241c-21.941-191.931-183.446-339.631-379.447-339.631-103.164 0-196.772 40.919-265.478 107.412l0.104-0.1zM170.581 421.163c-0.001-0.042-0.001-0.091-0.001-0.14 0-4.485 3.376-8.182 7.726-8.688l0.041-0.004c20.273-2.987 35.806-19.78 36.817-40.391l0.004-0.1c5.582-159.571 136.284-286.81 296.704-286.81s291.122 127.239 296.69 286.301l0.014 0.509c1.049 20.696 16.565 37.471 36.585 40.462l0.236 0.029c4.374 0.404 7.772 4.055 7.772 8.499 0 0.117-0.002 0.233-0.007 0.349l0.001-0.017c0.002 0.065 0.003 0.141 0.003 0.218 0 4.939-3.921 8.961-8.82 9.125h-4.58c-19.608 0.012-36.121 13.249-41.103 31.274l-0.071 0.3c-31.27 114.019-125.713 199.579-242.441 217.392l-1.655 0.208c-2.020-21.866-20.274-38.854-42.496-38.854s-40.476 16.988-42.483 38.686l-0.013 0.168c-118.478-17.947-213.026-103.525-243.861-215.507l-0.491-2.093c-5.053-18.324-21.566-31.561-41.172-31.573h-4.268c-5.049-0.023-9.132-4.121-9.132-9.173 0-0.060 0.001-0.12 0.002-0.18v0.009zM383.019 216.576c-34.892 28.577-59.991 67.952-70.224 112.977l-0.262 1.37c-0.622 2.731-0.979 5.868-0.979 9.088 0 23.574 19.111 42.685 42.685 42.685 20.355 0 37.381-14.247 41.653-33.313l0.054-0.285c12.098-53.568 59.283-92.973 115.672-92.973 56.956 0 104.523 40.202 115.871 93.778l0.137 0.774c4.109 19.631 21.275 34.163 41.835 34.163 23.58 0 42.696-19.116 42.696-42.696 0-3.021-0.314-5.968-0.91-8.811l0.049 0.278c-19.68-93.583-101.546-162.834-199.586-162.834-48.955 0-93.878 17.267-129.009 46.043l0.36-0.286zM554.667 512.171c0 23.564 19.103 42.667 42.667 42.667s42.667-19.103 42.667-42.667c0-23.564-19.103-42.667-42.667-42.667v0c-23.564 0-42.667 19.103-42.667 42.667v0zM384 512.171c0 23.564 19.103 42.667 42.667 42.667s42.667-19.103 42.667-42.667c0-23.564-19.103-42.667-42.667-42.667v0c-0.051 0-0.111 0-0.171 0-23.564 0-42.667 19.103-42.667 42.667 0 0 0 0 0 0v0z" />
<glyph unicode="&#xe91b;" glyph-name="ban" d="M85.333 426.667c0 235.641 191.025 426.667 426.667 426.667s426.667-191.025 426.667-426.667c0-235.641-191.025-426.667-426.667-426.667v0c-235.544 0.243-426.424 191.123-426.667 426.643v0.023zM512 85.334c188.334 0.237 340.917 152.966 340.917 341.333 0 79.114-26.915 151.941-72.089 209.825l0.569-0.758-478.848-478.592c57.015-44.776 129.814-71.808 208.927-71.808 0.184 0 0.368 0 0.552 0h-0.028zM170.667 426.667c0-0.127 0-0.277 0-0.427 0-79.137 27.049-151.956 72.407-209.716l-0.556 0.735 478.592 478.848c-57.126 44.604-129.953 71.52-209.067 71.52-188.367 0-341.096-152.583-341.333-340.894v-0.023z" />
<glyph unicode="&#xe91c;" glyph-name="bars" d="M853.333 597.334h-682.667c-23.564 0-42.667 19.103-42.667 42.667v0c0 23.564 19.103 42.667 42.667 42.667v0h682.667c23.564 0 42.667-19.103 42.667-42.667v0c0-23.564-19.103-42.667-42.667-42.667v0zM853.333 384h-682.667c-23.564 0-42.667 19.103-42.667 42.667v0c0 23.564 19.103 42.667 42.667 42.667v0h682.667c23.564 0 42.667-19.103 42.667-42.667v0c0-23.564-19.103-42.667-42.667-42.667v0zM853.333 170.667h-682.667c-23.564 0-42.667 19.103-42.667 42.667v0c0 23.564 19.103 42.667 42.667 42.667v0h682.667c23.564 0 42.667-19.103 42.667-42.667v0c0-23.564-19.103-42.667-42.667-42.667v0z" />
<glyph unicode="&#xe91d;" glyph-name="bell" d="M170.667 149.334c-0.121-0.001-0.265-0.002-0.409-0.002-19.459 0-35.908 12.884-41.282 30.587l-0.080 0.305c-1.073 3.523-1.691 7.573-1.691 11.766 0 14.98 7.886 28.119 19.733 35.491l0.177 0.103c19.269 16.606 34.935 36.801 46.065 59.615l0.484 1.1c30.67 63.162 48.598 137.391 48.598 215.808 0 7.293-0.155 14.549-0.462 21.767l0.035-1.031c1.26 129.385 94.499 236.627 217.402 259.542l1.648 0.255v15.403c-0.007 0.308-0.010 0.671-0.010 1.036 0 28.503 22.797 51.682 51.153 52.297l0.057 0.001c28.408-0.592 51.211-23.761 51.211-52.256 0-0.379-0.004-0.757-0.012-1.134l0.001 0.056v-15.403c124.551-23.171 217.791-130.413 219.050-259.662l0.001-0.135c-0.272-6.187-0.427-13.443-0.427-20.736 0-78.417 17.928-152.646 49.908-218.813l-1.31 3.005c11.632-23.905 27.295-44.098 46.31-60.513l0.239-0.202c12.024-7.475 19.91-20.613 19.91-35.594 0-4.194-0.618-8.243-1.768-12.062l0.077 0.296c-5.454-18.008-21.903-30.893-41.362-30.893-0.144 0-0.287 0.001-0.431 0.002h0.022zM327.125 524.8c0.263-6.523 0.412-14.181 0.412-21.873 0-95.756-23.194-186.095-64.271-265.705l1.523 3.247-3.285-5.845h501.077c-1.109 1.92-2.219 3.84-3.328 5.845-39.554 76.363-62.748 166.702-62.748 262.458 0 7.692 0.15 15.349 0.446 22.969l-0.034-1.096c-1.741 99.349-82.687 179.218-182.288 179.218-0.909 0-1.817-0.007-2.723-0.020l0.137 0.002c-0.782 0.012-1.705 0.019-2.629 0.019-99.601 0-180.548-79.87-182.286-179.056l-0.002-0.163zM512-0c58.842 0.169 106.497 47.825 106.667 106.651v0.016h-213.333c0.169-58.842 47.825-106.497 106.651-106.667h0.016z" />
<glyph unicode="&#xe91e;" glyph-name="book" d="M306.731 1.067c-75.365 0.794-136.153 62.073-136.153 137.55 0 0.363 0.001 0.725 0.004 1.087v-0.055 575.104c-0.002 0.306-0.004 0.669-0.004 1.031 0 75.477 60.789 136.756 136.078 137.55l0.075 0.001h503.936c23.564 0 42.667-19.103 42.667-42.667v0-766.848c0-23.564-19.103-42.667-42.667-42.667v0zM256 139.648c-0.008-0.335-0.012-0.73-0.012-1.126 0-28.287 22.564-51.305 50.675-52.035l0.068-0.001h461.269v489.771h-465.067c-16.903 0.001-33.034 3.308-47.782 9.308l0.849-0.305zM302.933 661.632h465.067v106.368h-461.184c-28.17-0.684-50.745-23.683-50.745-51.954 0-0.425 0.005-0.849 0.015-1.272l-0.001 0.063c-0.053-0.864-0.083-1.875-0.083-2.892 0-26.612 20.63-48.406 46.77-50.261l0.161-0.009z" />
<glyph unicode="&#xe91f;" glyph-name="box_archive" d="M170.667 85.334c-23.564 0-42.667 19.103-42.667 42.667v0 384c-23.564 0-42.667 19.103-42.667 42.667v0 170.667c0 23.564 19.103 42.667 42.667 42.667v0h768c23.564 0 42.667-19.103 42.667-42.667v0-170.667c0-23.564-19.103-42.667-42.667-42.667v0-384c0-23.564-19.103-42.667-42.667-42.667v0zM213.333 170.667h597.333v341.333h-597.333zM170.667 597.334h682.667v85.333h-682.667zM469.333 384c-23.564 0-42.667 19.103-42.667 42.667s19.103 42.667 42.667 42.667v0h85.333c23.564 0 42.667-19.103 42.667-42.667s-19.103-42.667-42.667-42.667v0z" />
<glyph unicode="&#xe920;" glyph-name="briefcase" d="M213.333 42.667c-70.692 0-128 57.308-128 128v0 384c0 70.692 57.308 128 128 128v0h85.333v8.533c0 0 0 0 0 0.001 0 65.845 53.268 119.248 119.062 119.466h188.266c65.98 0 119.467-53.487 119.467-119.467v0-8.533h85.333c70.692 0 128-57.308 128-128v0-384c0-70.692-57.308-128-128-128v0zM170.667 554.667v-384c0.192-23.487 19.18-42.475 42.648-42.667h597.351c23.564 0 42.667 19.103 42.667 42.667v0 384c0 23.564-19.103 42.667-42.667 42.667v0h-597.333c-23.564 0-42.667-19.103-42.667-42.667v0zM640 682.667v8.533c0 0 0 0.001 0 0.001 0 18.746-15.112 33.963-33.819 34.132h-188.261c-18.722-0.169-33.835-15.386-33.835-34.132 0 0 0-0.001 0-0.001v0-8.533zM170.667 512h682.667v-85.333h-682.667v85.333z" />
<glyph unicode="&#xe921;" glyph-name="buildings" d="M554.667-0h-426.667c-23.564 0-42.667 19.103-42.667 42.667v0 512c0 23.564 19.103 42.667 42.667 42.667v0h384v170.667c0 23.564 19.103 42.667 42.667 42.667v0h341.333c23.564 0 42.667-19.103 42.667-42.667v0-725.333c0-23.564-19.103-42.667-42.667-42.667v0zM853.333 85.334v640h-256v-640zM170.667 85.334h341.333v426.667h-341.333zM394.667 138.667c0 0 0 0 0 0-17.673 0-32 14.327-32 32 0 0.015 0 0.030 0 0.045v-0.002c0 17.673 14.327 32 32 32v0h42.667c17.673 0 32-14.327 32-32v0c0-0.013 0-0.028 0-0.043 0-17.673-14.327-32-32-32v0zM245.333 138.667c0 0 0 0 0 0-17.673 0-32 14.327-32 32 0 0.015 0 0.030 0 0.045v-0.002c0 17.673 14.327 32 32 32v0h42.667c17.673 0 32-14.327 32-32v0c0-0.013 0-0.028 0-0.043 0-17.673-14.327-32-32-32v0zM682.667 181.334c0 0 0 0 0 0-17.673 0-32 14.327-32 32 0 0.015 0 0.030 0 0.045v-0.002c0 17.673 14.327 32 32 32v0h85.333c17.673 0 32-14.327 32-32v0c0-0.013 0-0.028 0-0.043 0-17.673-14.327-32-32-32v0zM394.667 266.667c-17.673 0-32 14.327-32 32v0c0 17.673 14.327 32 32 32v0h42.667c17.673 0 32-14.327 32-32v0c0-17.673-14.327-32-32-32v0zM245.333 266.667c-17.673 0-32 14.327-32 32v0c0 17.673 14.327 32 32 32v0h42.667c17.673 0 32-14.327 32-32v0c0-17.673-14.327-32-32-32v0zM682.667 309.334c-17.673 0-32 14.327-32 32v0c0 17.673 14.327 32 32 32v0h85.333c17.673 0 32-14.327 32-32v0c0-17.673-14.327-32-32-32v0zM394.667 394.667c-17.673 0-32 14.327-32 32v0c0 0 0 0 0 0 0 17.682 14.322 32.018 31.998 32.043h42.669c17.678-0.024 32-14.361 32-32.043 0 0 0 0 0 0v0c0-17.673-14.327-32-32-32v0zM245.333 394.667c-17.673 0-32 14.327-32 32v0c0 0 0 0 0 0 0 17.682 14.322 32.018 31.998 32.043h42.669c17.678-0.024 32-14.361 32-32.043 0 0 0 0 0 0v0c0-17.673-14.327-32-32-32v0zM682.667 437.334c-17.673 0-32 14.327-32 32v0c0 0.013 0 0.028 0 0.043 0 17.673 14.327 32 32 32h85.333c0 0 0 0 0 0 17.673 0 32-14.327 32-32 0-0.015 0-0.030 0-0.045v0.002c0-17.673-14.327-32-32-32v0zM682.667 565.334c0 0 0 0 0 0-17.673 0-32 14.327-32 32 0 0.015 0 0.030 0 0.045v-0.002c0 17.673 14.327 32 32 32v0h85.333c17.673 0 32-14.327 32-32v0c0-0.013 0-0.028 0-0.043 0-17.673-14.327-32-32-32v0z" />
<glyph unicode="&#xe922;" glyph-name="bullhorn" d="M256 128v138.667h-36.565c-75.113 1.922-135.269 63.269-135.269 138.667s60.157 136.745 135.091 138.663l0.178 0.004h134.101l201.003 138.667v-554.667l-201.003 138.667h-12.203v-138.667c0-23.564-19.103-42.667-42.667-42.667s-42.667 19.103-42.667 42.667v0zM170.667 405.334c-0.027-0.626-0.043-1.361-0.043-2.1 0-27.467 21.628-49.882 48.783-51.144l0.113-0.004h134.101c18.078-0.052 34.827-5.695 48.622-15.289l-0.281 0.185 67.499-46.592v229.76l-67.499-46.336c-13.447-9.451-30.16-15.104-48.193-15.104-0.052 0-0.104 0-0.156 0h-134.093c-27.271-1.263-48.902-23.68-48.902-51.148 0-0.783 0.018-1.563 0.052-2.338l-0.004 0.11zM792.491 115.499l-63.403 57.259c-8.316 7.805-13.496 18.866-13.496 31.138 0 23.564 19.103 42.667 42.667 42.667 10.7 0 20.481-3.939 27.97-10.446l-0.052 0.044 63.403-57.259c8.652-7.839 14.063-19.117 14.063-31.659 0-23.528-19.044-42.608-42.559-42.667h-0.006c-0.023 0-0.050 0-0.078 0-10.977 0-20.987 4.146-28.547 10.957l0.038-0.034zM597.333 554.667c39.346-35.173 63.995-86.078 63.995-142.741s-24.65-107.569-63.811-142.579l-0.185-0.162zM810.667 384c-23.564 0-42.667 19.103-42.667 42.667s19.103 42.667 42.667 42.667v0h85.333c23.564 0 42.667-19.103 42.667-42.667s-19.103-42.667-42.667-42.667v0zM726.016 622.166c-6.862 7.491-11.066 17.514-11.066 28.52 0 12.524 5.445 23.777 14.098 31.519l0.041 0.036 63.403 57.088c7.242 5.852 16.562 9.394 26.709 9.394 23.564 0 42.667-19.103 42.667-42.667 0-11.678-4.691-22.26-12.292-29.964l0.005 0.005-63.403-57.259c-7.48-6.819-17.473-10.995-28.441-10.995-12.611 0-23.933 5.521-31.68 14.278l-0.039 0.045z" />
<glyph unicode="&#xe923;" glyph-name="cake" d="M597.547 725.334c0-70.656-38.187-85.333-85.333-85.333s-85.333 14.592-85.333 85.333 85.333 170.667 85.333 170.667 85.333-99.797 85.333-170.667zM512 402.56c-23.564 0-42.667 19.103-42.667 42.667v0 109.44c0 23.564 19.103 42.667 42.667 42.667v0c23.564 0 42.667-19.103 42.667-42.667v0-109.44c0-23.564-19.103-42.667-42.667-42.667v0zM853.333 0.043h-682.667c-23.564 0-42.667 19.103-42.667 42.667v0 300.501c-0.003 0.345-0.005 0.752-0.005 1.16 0 77.733 62.594 140.847 140.128 141.688l0.079 0.001h487.595c77.614-0.841 140.207-63.955 140.207-141.688 0-0.408-0.002-0.815-0.005-1.222v0.062-300.501c0-23.564-19.103-42.667-42.667-42.667v0zM213.333 85.376h597.333v257.835c0.009 0.373 0.014 0.813 0.014 1.255 0 30.591-24.408 55.481-54.811 56.259l-0.072 0.001h-487.595c-30.476-0.779-54.883-25.669-54.883-56.26 0-0.441 0.005-0.881 0.015-1.32l-0.001 0.065zM587.477 181.334c-0.077 0-0.167 0-0.258 0-37.836 0-71.947 15.949-95.977 41.49l-0.063 0.068c-12.795 15.475-31.996 25.261-53.483 25.261s-40.688-9.786-53.389-25.144l-0.093-0.116c-24.172-25.582-58.333-41.506-96.213-41.506s-72.041 15.924-96.154 41.443l-0.059 0.063c-8.819 9.119-19.363 16.506-31.116 21.643l-0.628 0.245c-11.326 5.094-19.071 16.278-19.071 29.272 0 17.673 14.327 32 32 32 2.974 0 5.854-0.406 8.586-1.165l-0.225 0.053c20.671-8.134 38.323-19.813 53.043-34.44l-0.008 0.008c12.872-15.457 32.122-25.224 53.653-25.224s40.782 9.767 53.562 25.111l0.091 0.112c24.123 25.516 58.207 41.397 96 41.397s71.877-15.882 95.942-41.335l0.058-0.062c12.912-15.524 32.233-25.335 53.845-25.335s40.934 9.81 53.753 25.221l0.092 0.114c24.169 25.555 58.312 41.461 96.171 41.461s72.002-15.906 96.112-41.399l0.058-0.062c7.718-7.648 16.501-14.241 26.102-19.533l0.608-0.307c11.127-5.173 18.703-16.255 18.703-29.106 0-17.673-14.327-32-32-32-5.115 0-9.95 1.2-14.238 3.334l0.186-0.084c-16.056 8.257-29.851 18.211-41.946 29.913l0.048-0.046c-12.871 15.442-32.112 25.198-53.632 25.198s-40.761-9.756-53.541-25.086l-0.091-0.112c-24.16-25.486-58.259-41.345-96.061-41.345-0.129 0-0.257 0-0.386 0.001h0.020z" />
<glyph unicode="&#xe924;" glyph-name="cake_first" d="M170.667-0.085c-23.564 0-42.667 19.103-42.667 42.667v0 300.501c-0.002 0.306-0.004 0.668-0.004 1.031 0 77.786 62.661 140.938 140.259 141.731l0.075 0.001h80.427c-4.713 0-8.533 3.821-8.533 8.533v170.411c0 15.488-0.256 25.984-0.896 31.232-0.045 5.696-1.741 10.987-4.633 15.428l0.068-0.111c-3.477 3.331-7.969 5.629-12.966 6.384l-0.132 0.016c-8.571 1.416-18.448 2.225-28.514 2.225-1.496 0-2.987-0.018-4.475-0.053l0.221 0.004h-9.259c-0.104-0.005-0.226-0.007-0.349-0.007-4.524 0-8.192 3.668-8.192 8.192 0 0.123 0.003 0.245 0.008 0.366l-0.001-0.017v35.584c0 0.026 0 0.056 0 0.086 0 3.912 2.756 7.18 6.432 7.968l0.054 0.010c21.362 4.286 40.31 12.162 57.131 23.044l-0.64-0.388 0.256 0.256c15.601 10.364 28.757 22.99 39.378 37.581l0.302 0.435c1.554 2.005 3.951 3.293 6.65 3.328h33.158c4.713 0 8.533-3.821 8.533-8.533v0-333.483c0-4.713-3.821-8.533-8.533-8.533v0h91.563c-19.054 3.722-35.801 11.764-49.792 23.079l0.213-0.167c-1.159 1.043-1.885 2.549-1.885 4.223 0 1.196 0.37 2.305 1.001 3.22l-0.012-0.019 19.84 27.179c0.796 1.324 2.151 2.243 3.731 2.43l0.024 0.002c0.177 0.019 0.382 0.029 0.589 0.029 1.393 0 2.675-0.477 3.691-1.276l-0.013 0.010c10.876-9.69 25.062-15.875 40.671-16.676l0.161-0.007c12.16 0 18.347 3.84 18.347 11.648s-13.099 12.8-27.179 18.176l-3.84 1.664c-13.312 4.992-48.683 18.432-48.683 53.248 1.617 31.695 27.709 56.782 59.66 56.782 2.613 0 5.186-0.168 7.71-0.493l-0.298 0.031c22.698-0.371 43.464-8.349 59.932-21.487l-0.199 0.153c1.313-1.118 2.14-2.773 2.14-4.62 0-1.234-0.369-2.381-1.002-3.338l0.014 0.023-19.584-26.24c-1.032-1.314-2.622-2.151-4.406-2.151-1.193 0-2.299 0.374-3.206 1.010l0.018-0.012c-8.784 7.466-20.011 12.302-32.333 13.174l-0.179 0.010c-7.424 0-16.512-1.92-16.512-10.496 0-6.229 9.344-10.069 24.576-15.573 1.92-0.683 3.584-1.408 5.504-2.091 18.688-7.168 49.664-18.901 49.664-55.168-0.59-29.368-23.136-53.289-51.863-56.046l-0.233-0.018h132.011c-26.837 6.656-40.747 28.757-40.747 65.152v67.755h-17.92c-0.013 0-0.028 0-0.043 0-3.016 0-5.461 2.445-5.461 5.461 0 0.015 0 0.030 0 0.045v-0.002 32.256c0 0.007 0 0.015 0 0.024 0 2.86 2.181 5.21 4.97 5.478l0.022 0.002 20.992 1.664 4.267 39.851c0.492 2.657 2.753 4.655 5.496 4.736h36.275c0.052 0.002 0.112 0.003 0.173 0.003 3.028 0 5.493-2.408 5.587-5.413v-38.665h35.072c3.060-0.095 5.505-2.598 5.505-5.672 0-0.031 0-0.062-0.001-0.093v0.005-34.133c0-0.013 0-0.028 0-0.043 0-3.016-2.445-5.461-5.461-5.461-0.015 0-0.030 0-0.045 0h-35.070v-67.755c0-19.584 8.533-22.229 17.067-22.229 5.158 0.377 9.945 1.503 14.408 3.272l-0.328-0.115c0.6 0.295 1.305 0.467 2.050 0.467 0.932 0 1.801-0.269 2.534-0.734l-0.019 0.011c1.449-0.669 2.503-1.977 2.811-3.553l0.005-0.031 7.168-31.488c0.095-0.383 0.149-0.822 0.149-1.274 0-2.406-1.544-4.451-3.695-5.2l-0.039-0.012c-4.122-1.499-9.281-2.97-14.561-4.114l-0.841-0.153h41.899c77.553-0.889 140.079-63.965 140.079-141.645 0-0.393-0.002-0.786-0.005-1.178v0.060-300.501c0-23.564-19.103-42.667-42.667-42.667v0zM213.333 85.248h597.333v121.344c-7.253 5.333-13.483 11.008-19.328 16.171-12.947 15.256-32.080 24.921-53.475 25.088h-0.029c-21.461-0.242-40.622-9.883-53.594-24.992l-0.080-0.096c-24.266-25.572-58.499-41.482-96.448-41.482s-72.182 15.91-96.393 41.424l-0.055 0.058c-12.865 15.185-31.862 24.833-53.119 25.088h-0.044c-21.491-0.221-40.686-9.866-53.68-24.993l-0.080-0.095c-24.022-25.581-58.058-41.515-95.816-41.515-0.125 0-0.249 0-0.374 0.001h0.019c-0.89-0.023-1.938-0.037-2.989-0.037-27.005 0-51.946 8.837-72.089 23.777l0.326-0.231zM533.931 270.507c12.883-15.384 32.034-25.152 53.471-25.344h0.033c21.678 0.2 41.038 9.952 54.104 25.245l0.083 0.099c24.16 25.486 58.258 41.344 96.060 41.344 0.039 0 0.078 0 0.116 0h-0.006c0.821 0.020 1.788 0.031 2.758 0.031 26.276 0 50.596-8.372 70.438-22.594l-0.364 0.248v53.589c0.008 0.35 0.012 0.763 0.012 1.177 0 30.532-24.278 55.394-54.582 56.335l-0.087 0.002h-487.68c-30.508-0.827-54.923-25.755-54.923-56.386 0-0.397 0.004-0.793 0.012-1.188l-0.001 0.059v-55.467c7.785-5.841 14.626-11.572 21.15-17.639l-0.158 0.145c12.893-15.386 32.118-25.101 53.611-25.101 21.61 0 40.927 9.82 53.731 25.242l0.093 0.115c24.156 25.448 58.229 41.281 96 41.281s71.844-15.832 95.946-41.223l0.054-0.058z" />
<glyph unicode="&#xe925;" glyph-name="calculator" d="M256 42.667c-70.692 0-128 57.308-128 128v0 512c0 70.692 57.308 128 128 128v0h512c70.692 0 128-57.308 128-128v0-512c0-70.692-57.308-128-128-128v0zM213.333 682.667v-512c0-23.564 19.103-42.667 42.667-42.667v0h512c23.564 0 42.667 19.103 42.667 42.667v0 512c0 23.564-19.103 42.667-42.667 42.667v0h-512c-23.564 0-42.667-19.103-42.667-42.667v0zM640 256c0 23.564 19.103 42.667 42.667 42.667v0c23.564 0 42.667-19.103 42.667-42.667v0c0-23.564-19.103-42.667-42.667-42.667v0c-23.564 0-42.667 19.103-42.667 42.667v0zM469.333 256c0 23.564 19.103 42.667 42.667 42.667v0c23.564 0 42.667-19.103 42.667-42.667v0c0-23.564-19.103-42.667-42.667-42.667v0c-23.564 0-42.667 19.103-42.667 42.667v0zM298.667 256c0 23.564 19.103 42.667 42.667 42.667v0c23.564 0 42.667-19.103 42.667-42.667v0c0-23.564-19.103-42.667-42.667-42.667v0c-23.564 0-42.667 19.103-42.667 42.667v0zM640 426.667c0 23.564 19.103 42.667 42.667 42.667v0c23.564 0 42.667-19.103 42.667-42.667v0c0-23.564-19.103-42.667-42.667-42.667v0c-23.564 0-42.667 19.103-42.667 42.667v0zM469.333 426.667c0 23.564 19.103 42.667 42.667 42.667v0c23.564 0 42.667-19.103 42.667-42.667v0c0-23.564-19.103-42.667-42.667-42.667v0c-23.564 0-42.667 19.103-42.667 42.667v0zM298.667 426.667c0 23.564 19.103 42.667 42.667 42.667v0c23.564 0 42.667-19.103 42.667-42.667v0c0-23.564-19.103-42.667-42.667-42.667v0c-23.564 0-42.667 19.103-42.667 42.667v0zM341.333 554.667c-23.564 0-42.667 19.103-42.667 42.667v0c0 23.564 19.103 42.667 42.667 42.667v0h341.333c23.564 0 42.667-19.103 42.667-42.667v0c0-23.564-19.103-42.667-42.667-42.667v0z" />
<glyph unicode="&#xe926;" glyph-name="calendar" d="M170.667 42.667c-47.128 0-85.333 38.205-85.333 85.333v0 554.667c0 47.128 38.205 85.333 85.333 85.333v0h128v42.667c0 0.076-0.001 0.166-0.001 0.256 0 23.564 19.103 42.667 42.667 42.667 0 0 0.001 0 0.001 0v0c0 0 0.001 0 0.001 0 23.564 0 42.667-19.103 42.667-42.667 0-0.090 0-0.18-0.001-0.27v0.014-42.667h256v42.667c0 0.076-0.001 0.166-0.001 0.256 0 23.564 19.103 42.667 42.667 42.667 0 0 0.001 0 0.001 0v0c0 0 0.001 0 0.001 0 23.564 0 42.667-19.103 42.667-42.667 0-0.090 0-0.18-0.001-0.27v0.014-42.667h128c47.128 0 85.333-38.205 85.333-85.333v0-554.667c-0.145-47.070-38.264-85.188-85.319-85.333h-0.014zM170.667 128h682.667v384h-682.667zM853.333 597.334v85.333h-682.667v-85.333z" />
<glyph unicode="&#xe927;" glyph-name="calendar_check" d="M170.667 42.667c-47.128 0-85.333 38.205-85.333 85.333v0 554.667c0 47.128 38.205 85.333 85.333 85.333v0h128v42.667c0 23.564 19.103 42.667 42.667 42.667v0c23.564 0 42.667-19.103 42.667-42.667v0-42.667h256v42.667c0 23.564 19.103 42.667 42.667 42.667v0c23.564 0 42.667-19.103 42.667-42.667v0-42.667h128c47.128 0 85.333-38.205 85.333-85.333v0-554.667c0-47.128-38.205-85.333-85.333-85.333v0zM170.667 128h682.667v384h-682.667zM853.333 597.334v85.333h-682.667v-85.333zM440.704 205.27l-86.912 86.912c-7.731 7.723-12.514 18.396-12.514 30.187s4.782 22.464 12.513 30.186v0c7.721 7.718 18.386 12.492 30.165 12.492s22.445-4.774 30.165-12.492l56.747-56.747 161.067 161.067c7.721 7.718 18.386 12.492 30.165 12.492s22.445-4.774 30.165-12.492v0c7.731-7.723 12.514-18.396 12.514-30.187s-4.782-22.464-12.513-30.186v0l-191.189-191.189c-7.717-7.698-18.369-12.459-30.132-12.459-0.012 0-0.024 0-0.035 0h0.002c-0.035 0-0.077 0-0.119 0-11.742 0-22.376 4.743-30.091 12.418l0.002-0.002z" />
<glyph unicode="&#xe928;" glyph-name="cancel" d="M512 853.334c235.641 0 426.667-191.025 426.667-426.667s-191.025-426.667-426.667-426.667c-235.641 0-426.667 191.025-426.667 426.667v0c0.267 235.534 191.133 426.4 426.641 426.667h0.025zM512 85.334c188.513 0 341.333 152.82 341.333 341.333s-152.82 341.333-341.333 341.333c-188.513 0-341.333-152.82-341.333-341.333v0c0.218-188.425 152.908-341.115 341.312-341.333h0.021zM256 128c-11.781 0.003-22.446 4.78-30.165 12.501v0c-7.718 7.721-12.492 18.386-12.492 30.165s4.774 22.445 12.492 30.165l512 512c7.721 7.718 18.386 12.492 30.165 12.492s22.445-4.774 30.165-12.492v0c7.718-7.721 12.492-18.386 12.492-30.165s-4.774-22.445-12.492-30.165l-512-512c-7.719-7.722-18.384-12.499-30.165-12.501h-0.001zM768 128c-11.781 0.003-22.446 4.78-30.165 12.501l-512 512c-7.718 7.721-12.492 18.386-12.492 30.165s4.774 22.445 12.492 30.165v0c7.721 7.718 18.386 12.492 30.165 12.492s22.445-4.774 30.165-12.492l512-512c7.718-7.721 12.492-18.386 12.492-30.165 0-23.561-19.097-42.661-42.657-42.667h-0.001z" />
<glyph unicode="&#xe929;" glyph-name="caret_down" d="M512 298.667l-213.333 213.333h426.667z" />
<glyph unicode="&#xe92a;" glyph-name="caret_left" d="M384 426.667l213.333 213.333v-426.667z" />
<glyph unicode="&#xe92b;" glyph-name="caret_right" d="M640 426.667l-213.333-213.333v426.667z" />
<glyph unicode="&#xe92c;" glyph-name="caret_up" d="M512 554.667l213.333-213.333h-426.667z" />
<glyph unicode="&#xe92d;" glyph-name="change" d="M671.701 12.459c-7.718 7.721-12.492 18.386-12.492 30.165s4.774 22.445 12.492 30.165l78.592 78.592h-426.965c-107.163 0.097-194.012 86.931-194.133 194.079v75.745c0 23.564 19.103 42.667 42.667 42.667v0c23.564 0 42.667-19.103 42.667-42.667v0-75.733c0.097-60.041 48.756-108.685 108.793-108.757h426.972l-78.592 78.592c-7.718 7.721-12.492 18.386-12.492 30.165s4.774 22.445 12.492 30.165v0c7.723 7.731 18.396 12.514 30.187 12.514s22.464-4.782 30.186-12.513v0l151.424-151.424c7.731-7.723 12.514-18.396 12.514-30.187s-4.782-22.464-12.513-30.186v0l-151.424-151.424c-7.717-7.698-18.369-12.459-30.132-12.459-0.027 0-0.054 0-0.080 0h0.004c-11.781 0.003-22.446 4.78-30.165 12.501v0zM810.624 432.086v75.648c0 0.048 0 0.105 0 0.163 0 29.952-12.184 57.058-31.867 76.633l-0.005 0.005c-19.546 19.686-46.625 31.872-76.549 31.872-0.088 0-0.177 0-0.265 0h-426.951l78.549-78.592c7.718-7.721 12.492-18.386 12.492-30.165s-4.774-22.445-12.492-30.165v0c-7.71-7.712-18.357-12.487-30.12-12.501h-0.003c-0.010 0-0.022 0-0.034 0-11.784 0-22.453 4.777-30.174 12.501l-151.211 151.211c-7.881 7.729-12.774 18.48-12.8 30.374v0.005c0.008 12.214 5.146 23.226 13.377 30.999l0.021 0.019 150.528 150.571c7.721 7.718 18.386 12.492 30.165 12.492s22.445-4.774 30.165-12.492v0c7.731-7.723 12.514-18.396 12.514-30.187s-4.782-22.464-12.513-30.186v0l-78.549-78.549h426.965c0.154 0 0.337 0.001 0.52 0.001 53.443 0 101.808-21.743 136.73-56.866l0.009-0.009c35.106-34.908 56.833-83.238 56.833-136.644 0-0.216 0-0.432-0.001-0.649v0.033-75.691c0-23.564-19.103-42.667-42.667-42.667v0c0 0 0 0-0.001 0-23.564 0-42.667 19.103-42.667 42.667 0 0.075 0 0.15 0.001 0.225v-0.012z" />
<glyph unicode="&#xe92e;" glyph-name="check" d="M384 128c-11.781 0.003-22.446 4.78-30.165 12.501l-213.333 213.333c-8.036 7.769-13.026 18.647-13.026 30.69 0 23.564 19.103 42.667 42.667 42.667 12.043 0 22.92-4.989 30.678-13.014l183.18-183.18 439.168 439.168c7.665 7.41 18.12 11.977 29.641 11.977 23.564 0 42.667-19.103 42.667-42.667 0-11.521-4.567-21.976-11.989-29.653l-469.321-469.321c-7.719-7.722-18.384-12.499-30.165-12.501h-0.001z" />
<glyph unicode="&#xe92f;" glyph-name="check_circle" d="M512-0c-235.641 0-426.667 191.025-426.667 426.667s191.025 426.667 426.667 426.667c235.641 0 426.667-191.025 426.667-426.667v0c-0.267-235.534-191.133-426.4-426.641-426.667h-0.025zM512 768c-188.513 0-341.333-152.82-341.333-341.333s152.82-341.333 341.333-341.333c188.513 0 341.333 152.82 341.333 341.333v0c-0.218 188.425-152.908 341.115-341.312 341.333h-0.021zM474.667 256c-11.914 0.014-22.683 4.909-30.415 12.793l-0.007 0.007-133.333 135.723c-8.098 7.778-13.129 18.696-13.129 30.789 0 23.564 19.103 42.667 42.667 42.667 12.38 0 23.528-5.273 31.322-13.695l0.026-0.028 102.827-104.704 220.203 224.981c7.753 7.909 18.546 12.811 30.485 12.811 23.57 0 42.678-19.107 42.678-42.678 0-11.631-4.653-22.176-12.199-29.874l0.007 0.007-250.667-256c-7.748-7.901-18.534-12.798-30.464-12.8v0z" />
<glyph unicode="&#xe930;" glyph-name="check_circle_fill" d="M512-0c-235.534 0.267-426.4 191.133-426.667 426.641v0.025c0.267 235.534 191.133 426.4 426.641 426.667h0.025c235.534-0.267 426.4-191.133 426.667-426.641v-0.025c-0.267-235.534-191.133-426.4-426.641-426.667h-0.025zM341.333 477.099c-0.034 0-0.075 0-0.116 0-11.597 0-22.105-4.659-29.755-12.207l0.005 0.005c-7.79-7.595-12.663-18.148-12.8-29.841v-0.026c-0.001-0.112-0.002-0.243-0.002-0.375 0-11.657 4.675-22.223 12.253-29.924l133.328-135.76c7.766-7.874 18.54-12.762 30.457-12.8h0.007c11.938 0.031 22.729 4.92 30.502 12.795l0.005 0.005 250.667 256c7.52 7.635 12.164 18.122 12.164 29.694 0 0.211-0.002 0.421-0.005 0.631v-0.032c-0.142 11.717-5.014 22.27-12.791 29.858l-0.009 0.008c-7.689 7.544-18.234 12.201-29.866 12.203v0c-0.041 0-0.089 0-0.137 0-11.887 0-22.63-4.9-30.318-12.791l-0.009-0.009-220.203-224.939-102.869 104.704c-7.71 7.9-18.464 12.8-30.363 12.8-0.051 0-0.101 0-0.152 0h0.008z" />
<glyph unicode="&#xe931;" glyph-name="check_rectangle" d="M204.8 85.334c-0.293-0.003-0.64-0.004-0.988-0.004-65.004 0-117.782 52.347-118.478 117.186l-0.001 0.066v448c0.674 65.041 53.556 117.507 118.693 117.507 0.272 0 0.544-0.001 0.816-0.003h614.358c0.243 0.002 0.529 0.003 0.816 0.003 65.128 0 118-52.471 118.65-117.445v-448.062c-0.673-64.9-53.441-117.252-118.437-117.252-0.362 0-0.724 0.002-1.085 0.005h0.055zM170.667 650.582v-448c0.953-17.779 15.602-31.835 33.533-31.835 0.211 0 0.421 0.002 0.631 0.006h614.368c0.179-0.003 0.389-0.005 0.6-0.005 17.932 0 32.58 14.056 33.53 31.75l0.004 0.084v448c-0.841 17.898-15.557 32.090-33.586 32.090-0.192 0-0.384-0.002-0.576-0.005h-614.371c-0.175 0.003-0.381 0.005-0.588 0.005-18.022 0-32.727-14.197-33.543-32.017l-0.003-0.073zM418.603 311.254l-86.656 86.656c-7.495 7.681-12.119 18.194-12.119 29.787 0 23.564 19.103 42.667 42.667 42.667 11.466 0 21.875-4.523 29.541-11.881l-0.015 0.014 56.832-56.832 160.981 160.981c7.723 7.713 18.387 12.482 30.165 12.482 23.577 0 42.69-19.113 42.69-42.69 0-11.799-4.787-22.48-12.525-30.208l-191.232-191.019c-7.61-7.889-18.272-12.791-30.078-12.8h-0.002c-11.858 0.075-22.557 4.976-30.243 12.835l-0.008 0.008z" />
<glyph unicode="&#xe932;" glyph-name="check_square" d="M255.915 42.667c-70.692 0-128 57.308-128 128v0 512c0 70.692 57.308 128 128 128v0h512c70.692 0 128-57.308 128-128v0-512c0-70.692-57.308-128-128-128v0zM213.248 682.667v-512c0-23.564 19.103-42.667 42.667-42.667v0h512c23.564 0 42.667 19.103 42.667 42.667v0 512c0 23.564-19.103 42.667-42.667 42.667v0h-512c-23.564 0-42.667-19.103-42.667-42.667v0zM418.048 289.75l-106.667 106.667c-8.009 7.766-12.98 18.625-12.98 30.646 0 23.564 19.103 42.667 42.667 42.667 12.063 0 22.957-5.006 30.717-13.054l0.012-0.013 76.459-76.459 204.459 204.459c7.619 7.188 17.92 11.607 29.253 11.607 23.564 0 42.667-19.103 42.667-42.667 0-11.28-4.377-21.537-11.525-29.166l0.022 0.023-234.667-234.667c-7.716-7.693-18.364-12.45-30.123-12.45s-22.406 4.757-30.124 12.451l0.001-0.001z" />
<glyph unicode="&#xe933;" glyph-name="square" d="M255.915 725.334c-23.564 0-42.667-19.103-42.667-42.667v0-512c0-23.564 19.103-42.667 42.667-42.667v0h512c23.564 0 42.667 19.103 42.667 42.667v0 512c0 23.564-19.103 42.667-42.667 42.667v0h-512zM255.915 810.667h512c70.692 0 128-57.308 128-128v0-512c0-70.692-57.308-128-128-128v0h-512c-70.692 0-128 57.308-128 128v0 512c0 70.692 57.308 128 128 128v0z" />
<glyph unicode="&#xe934;" glyph-name="check_square_fill" d="M767.915 42.667h-512c-70.692 0-128 57.308-128 128v0 512c0 70.692 57.308 128 128 128v0h512c70.692 0 128-57.308 128-128v0-512c0-70.692-57.308-128-128-128v0zM341.248 469.334c-0.077 0.001-0.168 0.001-0.259 0.001-23.423 0-42.411-18.988-42.411-42.411 0-0.18 0.001-0.36 0.003-0.54v0.027c0-0.030 0-0.066 0-0.101 0-11.656 4.784-22.194 12.495-29.759l0.007-0.006 106.667-106.667c7.637-7.762 18.254-12.571 29.995-12.571s22.358 4.809 29.989 12.565l0.005 0.006 235.008 234.667c7.647 7.753 12.37 18.408 12.37 30.165s-4.723 22.412-12.375 30.17l0.005-0.005c-7.671 7.773-18.323 12.587-30.1 12.587-0.083 0-0.166 0-0.249-0.001h0.013c-0.043 0-0.093 0-0.144 0-11.658 0-22.19-4.82-29.712-12.576l-0.010-0.011-204.8-204.245-76.501 76.501c-7.728 7.547-18.309 12.203-29.977 12.203-0.006 0-0.012 0-0.018 0h0.001z" />
<glyph unicode="&#xe935;" glyph-name="chevron_circle_down_fill" d="M512-0c-235.534 0.267-426.4 191.133-426.667 426.641v0.025c0.267 235.534 191.133 426.4 426.641 426.667h0.025c235.524-0.291 426.375-191.142 426.667-426.638v-0.028c-0.291-235.524-191.142-426.375-426.638-426.667h-0.028zM298.667 554.667c-0.029 0-0.063 0-0.097 0-11.751 0-22.386-4.779-30.067-12.5l-0.002-0.002c-7.722-7.683-12.501-18.317-12.501-30.068 0-0.034 0-0.068 0-0.102v0.005c0-0.029 0-0.063 0-0.097 0-11.751 4.779-22.386 12.5-30.067l213.335-213.335c7.676-7.722 18.305-12.501 30.051-12.501 0.040 0 0.081 0 0.121 0h-0.006c0.029 0 0.063 0 0.097 0 11.751 0 22.386 4.779 30.067 12.5l213.335 213.335c7.722 7.683 12.501 18.317 12.501 30.068 0 0.034 0 0.068 0 0.102v-0.005c0 0.029 0 0.063 0 0.097 0 11.751-4.779 22.386-12.5 30.067l-0.002 0.002c-7.683 7.722-18.317 12.501-30.068 12.501-0.034 0-0.068 0-0.102 0h0.005c-0.029 0-0.063 0-0.097 0-11.751 0-22.386-4.779-30.067-12.5l-183.17-183.17-183.125 183.168c-7.683 7.722-18.317 12.502-30.068 12.502-0.049 0-0.098 0-0.147 0h0.008z" />
<glyph unicode="&#xe936;" glyph-name="chevron_circle_left_fill" d="M85.333 426.667c0.267 235.534 191.133 426.4 426.641 426.667h0.025c235.534-0.267 426.4-191.133 426.667-426.641v-0.025c-0.291-235.524-191.142-426.375-426.638-426.667h-0.028c-235.524 0.291-426.375 191.142-426.667 426.638v0.028zM640 640c0 0.029 0 0.063 0 0.097 0 11.751-4.779 22.386-12.5 30.067l-0.002 0.002c-7.683 7.722-18.317 12.501-30.068 12.501-0.034 0-0.068 0-0.102 0h0.005c-0.029 0-0.063 0-0.097 0-11.751 0-22.386-4.779-30.067-12.5l-213.335-213.335c-7.722-7.676-12.501-18.305-12.501-30.051 0-0.040 0-0.081 0-0.121v0.006c0-0.029 0-0.063 0-0.097 0-11.751 4.779-22.386 12.5-30.067l213.335-213.335c7.683-7.722 18.317-12.501 30.068-12.501 0.034 0 0.068 0 0.102 0h-0.005c0.029 0 0.063 0 0.097 0 11.751 0 22.386 4.779 30.067 12.5l0.002 0.002c7.722 7.683 12.501 18.317 12.501 30.068 0 0.034 0 0.068 0 0.102v-0.005c0 0.029 0 0.063 0 0.097 0 11.751-4.779 22.386-12.5 30.067l-183.17 183.17 183.168 183.125c7.722 7.683 12.502 18.317 12.502 30.068 0 0.049 0 0.098 0 0.147v-0.008z" />
<glyph unicode="&#xe937;" glyph-name="chevron_circle_right_fill" d="M938.667 426.667c-0.267-235.534-191.133-426.4-426.641-426.667h-0.025c-235.534 0.267-426.4 191.133-426.667 426.641v0.025c0.291 235.524 191.142 426.375 426.638 426.667h0.028c235.524-0.291 426.375-191.142 426.667-426.638v-0.028zM384 213.334c0-0.029 0-0.063 0-0.097 0-11.751 4.779-22.386 12.5-30.067l0.002-0.002c7.683-7.722 18.317-12.501 30.068-12.501 0.034 0 0.068 0 0.102 0h-0.005c0.029 0 0.063 0 0.097 0 11.751 0 22.386 4.779 30.067 12.5l213.335 213.335c7.722 7.676 12.501 18.305 12.501 30.051 0 0.040 0 0.081 0 0.121v-0.006c0 0.029 0 0.063 0 0.097 0 11.751-4.779 22.386-12.5 30.067l-213.335 213.335c-7.683 7.722-18.317 12.501-30.068 12.501-0.034 0-0.068 0-0.102 0h0.005c-0.029 0-0.063 0-0.097 0-11.751 0-22.386-4.779-30.067-12.5l-0.002-0.002c-7.722-7.683-12.501-18.317-12.501-30.068 0-0.034 0-0.068 0-0.102v0.005c0-0.029 0-0.063 0-0.097 0-11.751 4.779-22.386 12.5-30.067l183.17-183.17-183.168-183.125c-7.722-7.683-12.502-18.317-12.502-30.068 0-0.049 0-0.098 0-0.147v0.008z" />
<glyph unicode="&#xe938;" glyph-name="chevron_circle_up_fill" d="M512 853.334c235.534-0.267 426.4-191.133 426.667-426.641v-0.025c-0.267-235.534-191.133-426.4-426.641-426.667h-0.025c-235.524 0.291-426.375 191.142-426.667 426.638v0.028c0.291 235.524 191.142 426.375 426.638 426.667h0.028zM725.333 298.667c0.029 0 0.063 0 0.097 0 11.751 0 22.386 4.779 30.067 12.5l0.002 0.002c7.722 7.683 12.501 18.317 12.501 30.068 0 0.034 0 0.068 0 0.102v-0.005c0 0.029 0 0.063 0 0.097 0 11.751-4.779 22.386-12.5 30.067l-213.335 213.335c-7.676 7.722-18.305 12.501-30.051 12.501-0.040 0-0.081 0-0.121 0h0.006c-0.029 0-0.063 0-0.097 0-11.751 0-22.386-4.779-30.067-12.5l-213.335-213.335c-7.722-7.683-12.501-18.317-12.501-30.068 0-0.034 0-0.068 0-0.102v0.005c0-0.029 0-0.063 0-0.097 0-11.751 4.779-22.386 12.5-30.067l0.002-0.002c7.683-7.722 18.317-12.501 30.068-12.501 0.034 0 0.068 0 0.102 0h-0.005c0.029 0 0.063 0 0.097 0 11.751 0 22.386 4.779 30.067 12.5l183.17 183.17 183.125-183.168c7.683-7.722 18.317-12.502 30.068-12.502 0.049 0 0.098 0 0.147 0h-0.008z" />
<glyph unicode="&#xe939;" glyph-name="chevron_down" d="M128 554.667c0.005 23.56 19.106 42.658 42.667 42.658 11.78 0 22.445-4.774 30.165-12.492l311.168-311.168 311.168 311.168c7.665 7.41 18.12 11.977 29.641 11.977 23.564 0 42.667-19.103 42.667-42.667 0-11.521-4.567-21.976-11.989-29.653l-341.321-341.321c-7.721-7.718-18.386-12.492-30.165-12.492s-22.445 4.774-30.165 12.492l-341.333 341.333c-7.722 7.719-12.499 18.384-12.501 30.165v0.001z" />
<glyph unicode="&#xe93a;" glyph-name="chevron_left" d="M640 42.667c-11.781 0.003-22.446 4.78-30.165 12.501l-341.333 341.333c-7.718 7.721-12.492 18.386-12.492 30.165s4.774 22.445 12.492 30.165l341.333 341.333c7.665 7.41 18.12 11.977 29.641 11.977 23.564 0 42.667-19.103 42.667-42.667 0-11.521-4.567-21.976-11.989-29.653l-311.156-311.156 311.168-311.168c7.718-7.721 12.492-18.386 12.492-30.165 0-23.561-19.097-42.661-42.657-42.667h-0.001z" />
<glyph unicode="&#xe93b;" glyph-name="chevron_right" d="M384 42.667c-23.56 0.005-42.658 19.106-42.658 42.667 0 11.78 4.774 22.445 12.492 30.165l311.168 311.168-311.168 311.168c-7.41 7.665-11.977 18.12-11.977 29.641 0 23.564 19.103 42.667 42.667 42.667 11.521 0 21.976-4.567 29.653-11.989l341.321-341.321c7.718-7.721 12.492-18.386 12.492-30.165s-4.774-22.445-12.492-30.165l-341.333-341.333c-7.719-7.722-18.384-12.499-30.165-12.501h-0.001z" />
<glyph unicode="&#xe93c;" glyph-name="chevron_up" d="M128 298.667c0.003 11.781 4.78 22.446 12.501 30.165l341.333 341.333c7.721 7.718 18.386 12.492 30.165 12.492s22.445-4.774 30.165-12.492l341.333-341.333c7.41-7.665 11.977-18.12 11.977-29.641 0-23.564-19.103-42.667-42.667-42.667-11.521 0-21.976 4.567-29.653 11.989l-311.156 311.156-311.168-311.168c-7.721-7.718-18.386-12.492-30.165-12.492-23.561 0-42.661 19.097-42.667 42.657v0.001z" />
<glyph unicode="&#xe93d;" glyph-name="chrysanthemum" d="M469.205 42.667v207.616c-38.169 7.785-69.76 31.139-88.409 62.991l-0.338 0.625c-4.651 1.024-9.515 2.176-14.507 3.413-64.607 15.968-120.295 35.434-173.526 59.391l6.358-2.559c-84.992 39.467-164.736 107.733-138.24 164.779 11.871 23.838 36.069 39.928 64.025 39.928 3.665 0 7.265-0.276 10.78-0.81l-0.395 0.049c-1.237 3.456-2.517 6.869-3.584 10.24-19.755 59.733 0.427 89.301 14.165 101.376 13.927 12.192 32.284 19.629 52.379 19.629 19.517 0 37.396-7.015 51.252-18.662l-0.122 0.1c0.882-0.582 1.65-1.214 2.345-1.919l0.001-0.001c1.835-1.621 4.267-3.499 6.656-5.461-0.256 7.339 0 14.507 0.341 21.333 4.48 62.763 34.133 82.517 51.584 88.619 7.724 2.751 16.633 4.34 25.914 4.34 30.221 0 56.506-16.857 69.964-41.681l0.208-0.42c0.597-1.024 1.237-1.877 1.664-2.731q2.261-4.693 4.992-9.387c0.683 5.845 1.408 11.136 2.432 15.744 4.475 50.702 45.018 90.642 95.592 94.147l0.323 0.018c46.933 0 82.901-35.2 95.829-93.867 1.186-5.394 2.154-11.942 2.695-18.611l0.036-0.546c2.432 4.053 4.736 8.235 6.741 12.373 0.449 0.76 0.893 1.658 1.272 2.59l0.051 0.141c13.832 25.248 40.223 42.082 70.545 42.082 9.298 0 18.226-1.583 26.529-4.493l-0.562 0.172c17.067-6.144 46.933-25.856 51.2-88.619 0.427-6.827 0.597-13.952 0.427-21.333 2.603 2.048 4.736 3.925 6.315 5.376 0.853 0.64 1.664 1.28 2.603 1.92 13.734 11.547 31.613 18.562 51.13 18.562 20.095 0 38.453-7.437 52.471-19.708l-0.092 0.079c13.739-12.075 33.664-41.557 14.165-101.376-1.067-3.371-2.347-6.784-3.669-10.24 3.145 0.491 6.772 0.772 10.465 0.772 27.961 0 52.162-16.096 63.844-39.527l0.187-0.413c26.496-57.045-53.248-125.355-138.24-164.779-46.873-21.398-102.561-40.864-160.225-55.354l-6.943-1.478c-8.149-2.048-16-3.797-23.509-5.333-17.665-29.24-45.666-50.721-78.829-59.527l-0.915-0.207v-209.365c0-23.564-19.103-42.667-42.667-42.667s-42.667 19.103-42.667 42.667v0zM479.189 546.39c4.499-56.39 15.558-108.618 32.491-158.122l-1.344 4.522c14.894 46.088 25.914 99.924 30.933 155.491l0.214 2.93c5.939 39.195 9.331 84.421 9.331 130.438 0 22.999-0.847 45.801-2.512 68.375l0.179-3.016c-3.157 13.995-12.8 46.933-37.504 46.933s-34.603-32.683-37.589-46.677c-2.28-15.097-3.582-32.518-3.582-50.243 0-4.718 0.092-9.415 0.275-14.088l-0.021 0.672c0.159-1.211 0.249-2.611 0.249-4.032s-0.091-2.821-0.266-4.195l0.017 0.163c0.853-36.437 3.712-81.536 9.216-129.408zM601.344 549.376c-5.803-58.153-15.611-110.859-29.41-161.925l1.592 6.917c18.25 20.078 34.68 42.432 48.655 66.393l1.009 1.874c23.545 37.93 45.372 81.8 63.056 127.728l1.84 5.435c11.345 29.083 17.919 62.751 17.919 97.955 0 2.403-0.031 4.799-0.092 7.188l0.007-0.353c-1.749 24.832-8.747 35.413-11.904 36.48-6.187 2.347-15.659 1.877-24.576-11.904-13.579-28.427-33.964-51.714-59.113-68.392l-0.62-0.387c-1.365-35.157-4.523-73.429-8.235-107.093zM329.856 737.11c-2.987-1.067-10.155-11.648-11.648-36.48-0.081-2.488-0.127-5.414-0.127-8.35 0-34.65 6.433-67.798 18.169-98.314l-0.634 1.875c19.698-51.409 41.574-95.27 67.072-136.662l-2.006 3.499c13.953-23.721 28.627-44.211 44.917-63.278l-0.501 0.601c-11.448 41.61-20.669 91.33-25.829 142.249l-0.326 3.97c-3.925 35.499-6.912 75.392-8.149 112-24.039 17.086-43.112 39.66-55.624 65.958l-0.44 1.028c-3.627 7.124-10.613 12.079-18.814 12.794l-0.088 0.006c-0.173 0.006-0.377 0.010-0.581 0.010-1.896 0-3.721-0.3-5.431-0.855l0.124 0.035zM824.789 476.843c-21.785-23.798-44.501-45.689-68.516-66.097l-1.074-0.89c16.597 6.229 31.915 12.501 44.757 18.432 74.24 34.389 107.093 74.667 108.843 86.741-2.987 4.053-11.264 4.864-21.675 2.347-10.092-3.429-22.637-6.694-35.474-9.135l-1.859-0.294c-7.723-10.667-16.043-21.077-25.045-31.189zM115.285 515.030c1.749-12.075 34.603-52.395 108.843-86.741 12.8-5.888 27.989-12.117 44.416-18.304-24.918 21.295-47.52 43.14-68.728 66.284l-0.52 0.575c-9.003 10.112-17.408 20.523-25.173 31.104-14.423 2.649-26.825 5.901-38.857 9.957l1.95-0.571c-3.256 0.851-7.010 1.375-10.875 1.45l-0.048 0.001c-0.501 0.066-1.080 0.104-1.668 0.104-3.736 0-7.116-1.525-9.552-3.985l-0.001-0.001zM185.301 645.248c-2.347-2.133-4.821-14.635 2.731-38.187 13.474-35.019 32.392-65.084 56.028-90.734l-0.178 0.195c33.397-35.922 69.531-68.348 108.397-97.312l2.11-1.504c2.731-2.091 5.419-4.267 8.064-6.016-1.152 1.749-2.261 3.541-3.413 5.333-29.363 45.512-56.118 97.855-77.514 152.875l-2.059 6.016c-3.755 10.752-7.083 21.333-9.899 32.213-21.774 9.181-40.503 21.109-56.871 35.639l0.21-0.183c-4.501 3.471-10.134 5.68-16.267 6.013l-0.075 0.003c-4.377-0.014-8.354-1.716-11.316-4.489l0.009 0.009zM744.619 575.915c-23.395-61.016-50.153-113.363-81.664-162.365l2.091 3.474c-1.067-1.792-2.261-3.541-3.413-5.291 2.688 1.877 5.333 3.883 8.064 5.973 40.871 30.535 76.944 62.954 109.887 98.328l0.449 0.488c23.594 25.372 42.511 55.468 55.139 88.664l0.626 1.875c7.851 23.552 5.333 36.053 2.987 38.187-5.077 4.267-13.995 7.68-27.563-1.664-16.158-14.347-34.888-26.275-55.33-34.954l-1.332-0.502c-2.901-10.795-6.144-21.589-9.984-32.128z" />
<glyph unicode="&#xe93e;" glyph-name="clap" d="M381.781-12.501c-44.791 1.331-87.129 10.169-126.344 25.29l2.611-0.885c-1.796 0.753-3.324 1.567-4.767 2.503l0.116-0.071c-52.104 36.836-95.988 81.25-131.118 132.17l-1.149 1.761c-28.759 35.795-46.999 81.134-49.43 130.628l-0.021 0.53c0.366 36.952 11.457 71.242 30.301 99.992l-0.435-0.707c54.407 65.562 112.647 124.046 175.753 176.914l2.124 1.732c0.427 0.384 0.939 0.768 1.365 1.109 8.502 6.321 18.461 11.27 29.232 14.27l0.635 0.151c5.994 1.885 12.886 2.97 20.033 2.97 18.651 0 35.574-7.396 47.997-19.415l-0.019 0.018c6.339-5.894 11.476-12.985 15.066-20.924l0.166-0.41 96.853 92.843c0.722 0.732 1.488 1.416 2.294 2.051l0.052 0.040c22.315 16.705 50.221 27.083 80.506 28.027l0.22 0.005c0.029 0 0.063 0 0.098 0 6.34 0 12.554-0.543 18.597-1.586l-0.646 0.092c2.383-0.399 4.505-1.007 6.52-1.823l-0.206 0.074c17.405-6.841 32.246-16.762 44.53-29.213l0.014-0.014c1.152-1.323 2.176-2.603 3.2-3.968 11.193 5.361 24.331 8.493 38.2 8.493 22.355 0 42.809-8.136 58.564-21.609l-0.123 0.103c7.814-7.172 14.058-15.92 18.248-25.753l0.184-0.487c7.972 2.718 17.156 4.287 26.707 4.287 21.808 0 41.705-8.181 56.79-21.641l-0.084 0.074c13.782-11.607 22.478-28.871 22.478-48.167 0-0.736-0.013-1.47-0.038-2.2l0.003 0.106c-0.663-9.008-3.336-17.267-7.569-24.502l0.145 0.268c10.152-4.175 18.835-9.942 26.173-17.084l-0.018 0.018c14.59-13.4 23.701-32.565 23.701-53.859 0-20.884-8.764-39.72-22.814-53.033l-0.033-0.031-1.621-1.707-0.853-0.597c24.655-12.875 41.195-38.257 41.195-67.503 0-20.434-8.075-38.982-21.207-52.628l0.023 0.024-0.725-0.939-0.896-0.896c-8.917-9.003-219.093-220.843-306.219-272.256-23.837-14.216-52.57-22.62-83.265-22.62-0.502 0-1.003 0.002-1.504 0.007l0.077-0.001c-48.301 1.76-92.844 16.417-130.711 40.604l1.047-0.625zM564.437 18.816c77.397 45.653 275.925 244.565 292.992 261.717 4.267 5.504 13.269 20.181 1.792 31.147-9.771 9.344-30.251 4.267-43.136-0.299-3.788-8.941-8.5-16.651-14.168-23.545l0.131 0.164c-0.512-0.597-1.067-1.237-1.621-1.792-8.875-9.003-219.179-220.843-306.261-272.256q-5.547-3.285-11.221-6.059c7.988-1.996 17.159-3.141 26.596-3.141 20.135 0 39.053 5.212 55.478 14.361l-0.581-0.297zM327.211 518.016c-3.244-0.92-6.078-2.202-8.669-3.835l0.136 0.080c-60.393-50.479-114.437-104.198-163.57-162.209l-1.593-1.929c-23.765-39.125-40.32-89.899 17.067-169.856 31.73-45.36 69.305-83.939 112.201-115.748l1.335-0.946c17.067-6.272 114.091-38.955 178.389-1.067 77.44 45.525 275.883 244.267 293.035 261.333 4.267 5.504 13.227 20.224 1.792 31.189-4.428 3.324-10.016 5.323-16.071 5.323-4.526 0-8.791-1.117-12.534-3.090l0.147 0.071-133.077-126.336c-5.536-5.107-12.962-8.239-21.12-8.239s-15.584 3.132-21.141 8.258l0.021-0.020c-5.536 5.045-8.997 12.285-8.997 20.334 0 7.782 3.235 14.808 8.433 19.807l0.009 0.009 126.933 122.581c2.185 1.912 4.578 3.763 7.080 5.466l0.259 0.166c0-1.323 2.347 3.285 6.315 5.333l46.933 44.501c4.19 3.367 6.85 8.491 6.85 14.236 0 5.412-2.36 10.272-6.106 13.609l-0.018 0.016c-13.483 12.8-35.541 1.707-42.112-2.133l-199.68-189.483c-5.537-5.161-12.99-8.329-21.184-8.329s-15.647 3.168-21.203 8.346l0.019-0.017c-5.424 5.034-8.807 12.202-8.807 20.16s3.383 15.126 8.79 20.144l0.017 0.016 201.685 191.531c0.213 0 0.384 0.427 0.64 0.597l40.576 38.4c0.743 0.777 1.552 1.478 2.423 2.098l0.052 0.035c1.008 0.928 1.838 2.031 2.446 3.263l0.029 0.065c-1.141 2.576-2.807 4.734-4.875 6.418l-0.031 0.025c-11.008 10.453-31.744 0.811-38.4-2.56l-226.475-210.645c-5.506-5.055-12.88-8.153-20.977-8.153-8.317 0-15.87 3.269-21.446 8.592l0.012-0.011c-5.297 5.019-8.594 12.105-8.594 19.96 0 8.040 3.453 15.273 8.957 20.298l0.021 0.019 204.459 190.251c-0.165 1.416-0.7 2.682-1.506 3.73l0.013-0.018c-5.107 4.516-11.013 8.287-17.451 11.058l-0.426 0.163c-0.393 0.007-0.856 0.011-1.321 0.011-16.85 0-32.445-5.376-45.162-14.506l0.232 0.158-240.939-231.253c-5.569-5.226-13.085-8.436-21.349-8.436-7.747 0-14.835 2.82-20.293 7.491l0.043-0.036c-5.972 5.088-9.736 12.615-9.736 21.021 0 7.065 2.658 13.508 7.028 18.386l-0.023-0.026 85.973 96.853c2.432 4.267 10.197 19.243 3.456 25.6-1.262 1.524-3.135 2.503-5.238 2.56h-0.010c-1.325-0.047-2.581-0.262-3.774-0.625l0.104 0.027zM784.512 410.326l-0.811-0.853-1.408-1.323c11.567-6.374 21.152-14.991 28.453-25.336l0.177-0.264 32.555 24.192c3.607 3.269 5.864 7.972 5.864 13.201 0 5.37-2.379 10.184-6.141 13.447l-0.022 0.019c-15.701 14.848-43.008-2.517-44.075-3.243v0l-0.341 0.384c-3.949-7.712-8.699-14.342-14.28-20.169l0.029 0.030zM783.701 517.248c3.765-3.564 7.181-7.413 10.243-11.54l0.167-0.236 9.728 9.259 0.597 0.341c1.002 0.909 1.82 1.999 2.405 3.223l0.027 0.062c-1.159 2.562-2.838 4.706-4.916 6.374l-0.033 0.026c-4.459 2.997-9.949 4.784-15.857 4.784-4.941 0-9.591-1.25-13.649-3.451l0.151 0.075c4.163-2.809 7.799-5.727 11.179-8.915l-0.043 0.040zM771.797 692.694c-8.772 5.162-15.199 13.51-17.735 23.417l-0.057 0.263c-0.653 2.571-1.027 5.522-1.027 8.56 0 7.498 2.281 14.463 6.186 20.239l-0.081-0.128 43.179 65.621c7.554 10.975 20.047 18.079 34.199 18.079 7.731 0 14.967-2.12 21.159-5.81l-0.19 0.105c11.321-6.448 18.83-18.436 18.83-32.177 0-7.523-2.251-14.52-6.116-20.355l0.085 0.137-43.349-65.792c-7.395-10.85-19.694-17.88-33.635-17.88-0.175 0-0.35 0.001-0.525 0.003h0.027c-7.731 0.024-14.957 2.161-21.138 5.865l0.188-0.105zM481.664 708.992l-57.557 54.784c-7.238 6.701-11.753 16.252-11.753 26.859s4.516 20.158 11.729 26.837l0.024 0.022c7.392 6.896 17.346 11.13 28.288 11.13s20.896-4.234 28.312-11.152l-0.024 0.023 57.685-54.741c7.205-6.725 11.696-16.278 11.696-26.88s-4.491-20.155-11.675-26.86l-0.021-0.020c-7.413-6.883-17.379-11.107-28.331-11.107s-20.918 4.224-28.357 11.131l0.026-0.024zM617.899 730.326c-7.405 6.71-12.075 16.323-12.202 27.028v0.023l-0.683 90.795c0.882 21.428 18.468 38.465 40.032 38.465 21.399 0 38.88-16.777 40.006-37.896l0.004-0.1 0.683-90.667c-0.333-21.282-17.663-38.407-38.993-38.407-0.257 0-0.513 0.002-0.768 0.007l0.038-0.001h-0.299c-0.006 0-0.013 0-0.019 0-10.771 0-20.575 4.136-27.913 10.906l0.028-0.026z" />
<glyph unicode="&#xe93f;" glyph-name="clipboard" d="M256-0c-70.692 0-128 57.308-128 128v0 597.333c0 70.692 57.308 128 128 128v0h42.667c0 47.128 38.205 85.333 85.333 85.333v0h256c47.128 0 85.333-38.205 85.333-85.333v0h42.667c70.692 0 128-57.308 128-128v0-597.333c0-70.692-57.308-128-128-128v0zM213.333 725.334v-597.333c0-23.564 19.103-42.667 42.667-42.667v0h512c23.564 0 42.667 19.103 42.667 42.667v0 597.333c-0.168 23.496-19.17 42.499-42.651 42.667h-42.683c0-47.128-38.205-85.333-85.333-85.333v0h-256c-47.128 0-85.333 38.205-85.333 85.333v0h-42.667c-23.564 0-42.667-19.103-42.667-42.667v0zM384 768h256v85.333h-256z" />
<glyph unicode="&#xe940;" glyph-name="clipboard_check" d="M256-0c-1.304-0.049-2.835-0.077-4.373-0.077-66.532 0-120.8 52.512-123.618 118.351l-0.009 0.255v530.944c2.849 66.075 57.108 118.563 123.625 118.563 1.538 0 3.070-0.028 4.595-0.084l-0.221 0.006h85.333c0 47.128 38.205 85.333 85.333 85.333v0h170.667c47.128 0 85.333-38.205 85.333-85.333v0h85.333c1.304 0.049 2.836 0.077 4.375 0.077 66.518 0 120.776-52.488 123.616-118.306l0.009-0.257v-530.944c-2.827-66.094-57.095-118.605-123.627-118.605-1.538 0-3.069 0.028-4.593 0.084l0.22-0.006zM213.333 649.515v-530.944c2.998-19.032 19.283-33.415 38.927-33.415 1.317 0 2.619 0.065 3.902 0.191l-0.163-0.013h512c1.121-0.113 2.423-0.178 3.74-0.178 19.644 0 35.929 14.383 38.898 33.192l0.029 0.223v530.944c-3.016 19.012-19.291 33.373-38.92 33.373-1.319 0-2.623-0.065-3.909-0.192l0.163 0.013h-96.768c-15.029-25.686-42.481-42.666-73.898-42.667h-170.667c-31.402 0.017-58.834 16.993-73.638 42.264l-0.218 0.403h-96.811c-1.123 0.114-2.427 0.179-3.746 0.179-19.629 0-35.904-14.361-38.891-33.149l-0.029-0.224zM426.667 725.376h170.667v42.667h-170.667zM419.541 225.451l-107.989 104.832c-7.976 7.761-12.925 18.599-12.925 30.592 0 11.569 4.605 22.063 12.081 29.748l-0.009-0.010c7.763 7.989 18.609 12.947 30.613 12.947 11.559 0 22.044-4.596 29.728-12.061l-0.010 0.010 77.781-75.52 203.648 203.861c7.723 7.731 18.396 12.514 30.187 12.514s22.464-4.782 30.186-12.513v0c7.731-7.723 12.514-18.396 12.514-30.187s-4.782-22.464-12.513-30.186v0l-233.387-233.6c-7.683-7.722-18.317-12.501-30.068-12.501-0.034 0-0.068 0-0.102 0h0.005c-0.035 0-0.077 0-0.119 0-11.511 0-21.95 4.59-29.585 12.041l0.009-0.008z" />
<glyph unicode="&#xe941;" glyph-name="clock" d="M85.333 426.667c0 235.641 191.025 426.667 426.667 426.667s426.667-191.025 426.667-426.667c0-235.641-191.025-426.667-426.667-426.667v0c-235.486 0.388-426.279 191.182-426.667 426.63v0.037zM170.667 426.667c0-188.513 152.82-341.333 341.333-341.333s341.333 152.82 341.333 341.333c0 188.513-152.82 341.333-341.333 341.333v0c-188.386-0.315-341.018-152.947-341.333-341.303v-0.030zM663.595 288.982l-170.667 85.333c-14.022 7.159-23.466 21.479-23.509 38.010v256.006c0 23.564 19.103 42.667 42.667 42.667s42.667-19.103 42.667-42.667v0-229.845l147.157-73.344c14.062-7.187 23.523-21.572 23.523-38.165 0-23.595-19.128-42.723-42.723-42.723-7.001 0-13.609 1.684-19.441 4.669l0.241-0.112z" />
<glyph unicode="&#xe942;" glyph-name="clone" d="M256 42.667c-70.714 0.17-127.976 57.522-128 128.254v384.002c0 70.692 57.308 128 128 128v0h42.667v42.667c0 70.692 57.308 128 128 128v0h384c70.692 0 128-57.308 128-128v0-384c0-70.692-57.308-128-128-128v0h-42.667v-42.667c-0.024-70.734-57.286-128.086-127.984-128.256h-0.016zM213.333 554.667v-384c0-23.564 19.103-42.667 42.667-42.667v0h384c23.564 0 42.667 19.103 42.667 42.667v0 42.667h-256c-70.692 0-128 57.308-128 128v0 256h-42.667c-23.564 0-42.667-19.103-42.667-42.667v0zM384 725.334v-384c0-23.564 19.103-42.667 42.667-42.667v0h384c23.564 0 42.667 19.103 42.667 42.667v0 384c-0.168 23.496-19.17 42.499-42.651 42.667h-384.016c-23.564 0-42.667-19.103-42.667-42.667v0z" />
<glyph unicode="&#xe943;" glyph-name="cloud" d="M688.512 113.494h-287.616c-178.456 0.243-323.029 144.966-323.029 323.456 0 0.015 0 0.030 0 0.045v-0.002c0 0.049 0 0.108 0 0.167 0 178.451 144.663 323.115 323.115 323.115 65.243 0 125.97-19.337 176.762-52.593l-1.232 0.757c44.405-29.347 80.47-67.813 106.198-112.936l0.853-1.624h4.779c132.69 0 240.256-107.566 240.256-240.256s-107.566-240.256-240.256-240.256v0zM400.896 683.051c-135.906 0-246.080-110.174-246.080-246.080s110.174-246.080 246.080-246.080h287.616c88.85 1.484 160.307 73.858 160.307 162.923s-71.457 161.439-160.168 162.921l-0.139 0.002c-4.651 0-8.789-0.256-11.435-0.469-4.011-0.256-7.979-0.768-10.581-1.109-1.57-0.217-3.384-0.341-5.227-0.341-0.007 0-0.015 0-0.022 0h0.001c-15.666 0.011-29.19 9.167-35.524 22.419l-0.102 0.237c-20.173 44.112-51.396 80.201-90.198 105.704l-0.938 0.579c-37.542 24.637-83.549 39.297-132.98 39.297-0.214 0-0.428 0-0.643-0.001h0.033z" />
<glyph unicode="&#xe944;" glyph-name="cloud_bolt" d="M727.851 213.334c-0.099-0.001-0.217-0.002-0.334-0.002-16.478 0-30.295 11.391-34.006 26.728l-0.049 0.239c-0.701 2.651-1.104 5.694-1.104 8.831 0 16.554 11.21 30.49 26.452 34.631l0.251 0.058c13.958 3.764 26.154 8.837 37.483 15.26l-0.79-0.412c11.938 7.092 22.263 15.068 31.516 24.134l-0.028-0.027c13.414 13.671 24.37 29.81 32.118 47.664l0.394 1.019c6.999 16.794 11.112 36.296 11.221 56.746v0.043c0 0.019 0 0.042 0 0.064 0 40.929-16.618 77.977-43.474 104.764l-0.003 0.003-2.261 2.389c-12.693 12.344-27.674 22.414-44.234 29.505l-0.95 0.362-1.067 0.427c-16.806 7.31-36.384 11.563-56.955 11.563-0.137 0-0.274 0-0.41-0.001h-4.544l-5.291-0.213-5.632-0.853-4.949-0.853c-1.277-0.159-2.759-0.252-4.261-0.256h-0.005c-0.156-0.003-0.34-0.004-0.525-0.004-14.332 0-26.631 8.702-31.902 21.11l-0.086 0.227c-9.639 20.21-20.929 37.628-34.146 53.373l0.311-0.381-0.64 0.896c-13.315 15.732-28.475 29.305-45.297 40.593l-0.783 0.495-1.749 1.024c-16.928 11.619-36.517 21.066-57.485 27.312l-1.48 0.378c-19.276 6.088-41.449 9.624-64.438 9.685h-0.031c-31.215-0.094-60.941-6.356-88.059-17.631l1.531 0.564c-28.343-12.319-52.571-28.865-73.114-49.135l0.026 0.026c-20.207-20.403-36.667-44.561-48.232-71.328l-0.579-1.504c-10.554-25.216-16.686-54.518-16.686-85.253 0-0.418 0.001-0.836 0.003-1.254v0.064c-0.005-0.573-0.008-1.25-0.008-1.928 0-61.461 25.064-117.069 65.527-157.159l0.017-0.017c6.784-6.784 13.781-12.8 20.309-18.219 6.482-5.035 13.807-10.049 21.426-14.623l1.016-0.566c10.438-6.43 17.292-17.796 17.292-30.763 0-19.888-16.123-36.011-36.011-36.011-0.064 0-0.128 0-0.192 0.001h0.010c-0.018 0-0.038 0-0.059 0-6.902 0-13.34 1.986-18.774 5.419l0.145-0.085c-10.069 6.272-19.84 13.013-29.056 20.096-9.771 7.619-18.473 15.414-26.616 23.756l-0.050 0.052c-27.084 26.826-48.892 58.925-63.761 94.637l-0.708 1.918c-14.3 33.425-22.613 72.318-22.613 113.152 0 0.105 0 0.21 0 0.315v-0.017c0.030 40.916 8.244 79.906 23.092 115.432l-0.734-1.981c45.956 108.666 151.662 183.531 274.856 183.552h0.003c60.717-0.105 117.127-18.46 164.060-49.871l-1.073 0.676 1.621-0.896c23.174-15.797 43.229-33.683 60.73-53.846l0.326-0.383 0.725-0.768c11.726-13.97 22.721-29.49 32.401-45.879l0.879-1.609h3.328c0.192 0.001 0.419 0.001 0.646 0.001 30.193 0 58.95-6.149 85.087-17.264l-1.423 0.538 2.176-0.725c27.094-11.579 50.222-27.418 69.669-46.928l0.006-0.006c18.876-19.069 34.334-41.564 45.349-66.464l0.56-1.419h0.256l1.664-3.883c10.499-24.492 16.603-52.995 16.603-82.924 0-0.562-0.002-1.124-0.006-1.685l0.001 0.086c0.002-0.33 0.003-0.72 0.003-1.111 0-26.744-4.803-52.365-13.593-76.050l0.492 1.512h0.256l-3.712-8.789-1.707-3.925c-11.737-26.255-27.312-48.688-46.297-67.716l0.004 0.004c-27.073-27.099-61.194-47.152-99.378-57.174l-1.528-0.341c-2.681-0.733-5.764-1.168-8.944-1.195h-0.016zM475.989 426.71h129.963c0.026 0 0.056 0 0.087 0 7.466 0 13.532-5.992 13.652-13.429v-0.011c-0.018-3.272-1.003-6.311-2.683-8.85l0.038 0.060-80.64-117.803h85.333c7.507-0.024 13.587-6.103 13.611-13.608v-0.002c-0.036-3.483-1.287-6.667-3.348-9.155l0.020 0.024-179.84-216.448c-2.543-2.957-6.288-4.818-10.468-4.818-3.344 0-6.41 1.191-8.797 3.172l0.023-0.018c-2.88 2.596-4.683 6.34-4.683 10.505 0 1.209 0.152 2.383 0.438 3.503l-0.021-0.098 38.955 156.459h-85.589c-0.051-0.001-0.111-0.001-0.172-0.001-7.423 0-13.44 6.017-13.44 13.44 0 0.060 0 0.121 0.001 0.181v-0.009c0.151 2.632 0.876 5.063 2.050 7.215l-0.045-0.089 93.44 182.315c2.319 4.431 6.864 7.415 12.11 7.467h0.007z" />
<glyph unicode="&#xe945;" glyph-name="cloud_bolt_fill" d="M643.285 178.774h-111.488l59.264 102.827h-134.016l-59.179-169.173h95.147l-42.197-156.203zM778.752 553.728c1.619 7.648 2.546 16.436 2.546 25.441 0 70.905-57.479 128.384-128.384 128.384-21.282 0-41.354-5.178-59.026-14.343l0.714 0.337c-21.362 69.164-84.726 118.547-159.624 118.547-92.089 0-166.741-74.653-166.741-166.741 0-5.34 0.251-10.62 0.742-15.832l-0.051 0.666c-78.994-7.154-140.417-73.057-140.417-153.307 0-84.531 68.151-153.145 152.506-153.892h500.295c0.147-0.001 0.322-0.001 0.496-0.001 63.765 0 115.456 51.691 115.456 115.456s-51.691 115.456-115.456 115.456c-1.090 0-2.176-0.015-3.258-0.045l0.159 0.003z" />
<glyph unicode="&#xe946;" glyph-name="cloud_fill" d="M808.064 421.035c1.793 8.491 2.82 18.247 2.82 28.244 0 78.893-63.955 142.848-142.848 142.848-23.636 0-45.932-5.741-65.569-15.904l0.797 0.375c-23.931 76.712-94.319 131.427-177.486 131.427-102.48 0-185.557-83.077-185.557-185.557 0-5.743 0.261-11.425 0.771-17.034l-0.053 0.722c-88.698-7.079-157.994-80.802-157.994-170.71 0-94.563 76.658-171.221 171.221-171.221 0.12 0 0.24 0 0.36 0h556.482c70.315 0.808 127.005 57.997 127.005 128.427 0 70.932-57.502 128.435-128.435 128.435-0.503 0-1.005-0.003-1.506-0.009l0.076 0.001z" />
<glyph unicode="&#xe947;" glyph-name="cloud_rain" d="M270.507 78.934c-6.764 0.016-13.092 1.869-18.516 5.085l0.169-0.093c-8.038 4.704-13.946 12.309-16.329 21.345l-0.055 0.244c-0.756 2.735-1.191 5.876-1.191 9.118 0 6.697 1.854 12.96 5.078 18.305l-0.089-0.16 125.525 217.6c6.183 10.753 17.606 17.878 30.692 17.878 0.040 0 0.079 0 0.119 0h-0.006c19.882-0.040 35.984-16.166 35.984-36.053 0-6.491-1.715-12.58-4.717-17.841l0.093 0.177-125.653-217.6c-6.359-10.786-17.889-17.928-31.093-18.005h-0.011zM398.507 78.934c-6.764 0.016-13.092 1.869-18.516 5.085l0.169-0.093c-8.038 4.704-13.946 12.309-16.329 21.345l-0.055 0.244c-0.756 2.735-1.191 5.876-1.191 9.118 0 6.697 1.854 12.96 5.078 18.305l-0.089-0.16 125.525 217.6c6.183 10.753 17.606 17.878 30.692 17.878 0.040 0 0.079 0 0.119 0h-0.006c19.882-0.040 35.984-16.166 35.984-36.053 0-6.491-1.715-12.58-4.717-17.841l0.093 0.177-125.653-217.6c-6.359-10.786-17.889-17.928-31.093-18.005h-0.011zM526.507 78.934c-6.764 0.016-13.092 1.869-18.516 5.085l0.169-0.093c-8.038 4.704-13.946 12.309-16.329 21.345l-0.055 0.244c-0.756 2.735-1.191 5.876-1.191 9.118 0 6.697 1.854 12.96 5.078 18.305l-0.089-0.16 125.525 217.6c6.183 10.753 17.606 17.878 30.692 17.878 0.040 0 0.079 0 0.119 0h-0.006c19.882-0.040 35.984-16.166 35.984-36.053 0-6.491-1.715-12.58-4.717-17.841l0.093 0.177-125.653-217.6c-6.359-10.786-17.889-17.928-31.093-18.005h-0.011zM721.408 222.635c-0.099-0.001-0.217-0.002-0.334-0.002-16.478 0-30.295 11.391-34.006 26.728l-0.049 0.239c-0.701 2.651-1.104 5.694-1.104 8.831 0 16.554 11.21 30.49 26.452 34.631l0.251 0.058c13.958 3.764 26.154 8.837 37.483 15.26l-0.79-0.412c11.938 7.092 22.263 15.068 31.516 24.134l-0.028-0.027c13.414 13.671 24.37 29.81 32.118 47.664l0.394 1.019c6.999 16.794 11.112 36.296 11.221 56.746v0.043c0 0.019 0 0.042 0 0.064 0 40.929-16.618 77.977-43.474 104.764l-0.003 0.003-2.261 2.389c-12.693 12.344-27.674 22.414-44.234 29.505l-0.95 0.362-1.067 0.427c-16.806 7.31-36.384 11.563-56.955 11.563-0.137 0-0.274 0-0.41-0.001h-4.544l-5.291-0.213-5.632-0.853-4.949-0.853c-1.277-0.159-2.759-0.252-4.261-0.256h-0.005c-0.156-0.003-0.34-0.004-0.525-0.004-14.332 0-26.631 8.702-31.902 21.11l-0.086 0.227c-9.639 20.21-20.929 37.628-34.146 53.373l0.311-0.381-0.64 0.896c-13.315 15.732-28.475 29.305-45.297 40.593l-0.783 0.495-1.749 1.024c-16.928 11.619-36.517 21.066-57.485 27.312l-1.48 0.378c-19.276 6.088-41.449 9.624-64.438 9.685h-0.031c-31.215-0.094-60.941-6.356-88.059-17.631l1.531 0.564c-28.343-12.319-52.571-28.865-73.114-49.135l0.026 0.026c-20.207-20.403-36.667-44.561-48.232-71.328l-0.579-1.504c-10.554-25.216-16.686-54.518-16.686-85.253 0-0.418 0.001-0.836 0.003-1.254v0.064c-0.005-0.573-0.008-1.25-0.008-1.928 0-61.461 25.064-117.069 65.527-157.159l0.017-0.017c6.784-6.784 13.781-12.8 20.309-18.219 6.482-5.035 13.807-10.049 21.426-14.623l1.016-0.566c10.438-6.43 17.292-17.796 17.292-30.763 0-19.888-16.123-36.011-36.011-36.011-0.064 0-0.128 0-0.192 0.001h0.010c-0.018 0-0.038 0-0.059 0-6.902 0-13.34 1.986-18.774 5.419l0.145-0.085c-10.069 6.272-19.84 13.013-29.056 20.096-9.771 7.619-18.473 15.414-26.616 23.756l-0.050 0.052c-27.084 26.826-48.892 58.925-63.761 94.637l-0.708 1.918c-14.3 33.425-22.613 72.318-22.613 113.152 0 0.105 0 0.21 0 0.315v-0.017c0.030 40.916 8.244 79.906 23.092 115.432l-0.734-1.981c45.956 108.666 151.662 183.531 274.856 183.552h0.003c60.717-0.105 117.127-18.46 164.060-49.871l-1.073 0.676 1.621-0.896c23.174-15.797 43.229-33.683 60.73-53.846l0.326-0.383 0.725-0.768c11.726-13.97 22.721-29.49 32.401-45.879l0.879-1.609h3.328c0.192 0.001 0.419 0.001 0.646 0.001 30.193 0 58.95-6.149 85.087-17.264l-1.423 0.538 2.176-0.725c27.094-11.579 50.222-27.418 69.669-46.928l0.006-0.006c18.876-19.069 34.334-41.564 45.349-66.464l0.56-1.419h0.256l1.664-3.883c10.499-24.492 16.603-52.995 16.603-82.924 0-0.562-0.002-1.124-0.006-1.685l0.001 0.086c0.002-0.33 0.003-0.72 0.003-1.111 0-26.744-4.803-52.365-13.593-76.050l0.492 1.512h0.256l-3.712-8.789-1.707-3.925c-11.737-26.255-27.312-48.688-46.297-67.716l0.004 0.004c-27.073-27.099-61.194-47.152-99.378-57.174l-1.528-0.341c-2.681-0.733-5.764-1.168-8.944-1.195h-0.016z" />
<glyph unicode="&#xe948;" glyph-name="cloud_rain_fill" d="M779.52 553.728c1.619 7.648 2.546 16.436 2.546 25.441 0 70.905-57.479 128.384-128.384 128.384-21.282 0-41.354-5.178-59.026-14.343l0.714 0.337c-21.362 69.164-84.726 118.547-159.624 118.547-92.089 0-166.741-74.653-166.741-166.741 0-5.34 0.251-10.62 0.742-15.832l-0.051 0.666c-78.994-7.154-140.417-73.057-140.417-153.307 0-84.531 68.151-153.145 152.506-153.892h500.295c0.147-0.001 0.322-0.001 0.496-0.001 63.765 0 115.456 51.691 115.456 115.456s-51.691 115.456-115.456 115.456c-1.090 0-2.176-0.015-3.258-0.045l0.159 0.003zM235.605 261.462c-2.869 1.173-6.199 1.854-9.688 1.854-11.060 0-20.522-6.842-24.383-16.525l-0.062-0.177-45.397-115.2c-1.151-2.845-1.819-6.144-1.819-9.6 0-14.495 11.75-26.245 26.245-26.245 11.039 0 20.487 6.816 24.364 16.469l0.063 0.177 45.44 115.2c1.169 2.867 1.847 6.194 1.847 9.679 0 11.049-6.818 20.505-16.476 24.392l-0.177 0.063zM627.627 279.723c-2.88 1.185-6.223 1.873-9.727 1.873-11.043 0-20.49-6.833-24.344-16.501l-0.062-0.177-45.397-115.2c-1.156-2.851-1.827-6.158-1.827-9.621 0-14.499 11.754-26.253 26.253-26.253 11.036 0 20.481 6.809 24.364 16.455l0.063 0.176 45.397 115.2c1.169 2.867 1.847 6.194 1.847 9.679 0 11.049-6.818 20.505-16.476 24.392l-0.177 0.063zM424.149 163.84c-2.873 1.177-6.208 1.86-9.703 1.86-11.046 0-20.498-6.825-24.368-16.488l-0.062-0.177-45.397-115.2c-1.156-2.851-1.827-6.158-1.827-9.621 0-14.499 11.754-26.253 26.253-26.253 11.036 0 20.481 6.809 24.364 16.455l0.063 0.176 45.397 115.2c1.177 2.873 1.86 6.208 1.86 9.703 0 11.046-6.825 20.498-16.488 24.368l-0.177 0.062zM774.997 177.622c-2.873 1.177-6.208 1.86-9.703 1.86-11.046 0-20.498-6.825-24.368-16.488l-0.062-0.177-45.397-115.2c-1.156-2.851-1.827-6.158-1.827-9.621 0-14.499 11.754-26.253 26.253-26.253 11.036 0 20.481 6.809 24.364 16.455l0.063 0.176 45.397 115.2c1.173 2.869 1.854 6.199 1.854 9.688 0 11.060-6.842 20.522-16.525 24.383l-0.177 0.062z" />
<glyph unicode="&#xe949;" glyph-name="cloud_snow" d="M689.195 51.798c-0.144-9.748-8.069-17.598-17.832-17.621h-0.002c-9.63 0.072-17.408 7.896-17.408 17.536 0 0.030 0 0.060 0 0.090v-0.005 11.392l-9.685-5.803c-2.509-1.395-5.502-2.216-8.687-2.216-6.597 0-12.372 3.523-15.545 8.791l-0.046 0.082c-1.436 2.513-2.283 5.523-2.283 8.731 0 6.489 3.465 12.168 8.646 15.288l0.080 0.045 9.472 5.163-9.472 6.016c-5.292 3.117-8.787 8.786-8.787 15.271 0 3.236 0.87 6.269 2.389 8.877l-0.045-0.084c3.226 5.266 8.948 8.727 15.479 8.727 3.231 0 6.264-0.847 8.889-2.331l-0.090 0.047 9.685-5.803v11.861c0.144 9.631 7.973 17.385 17.619 17.408h0.002c9.583-0.183 17.318-7.844 17.621-17.38l0.001-0.028v-11.819l9.899 5.803c2.491 1.436 5.479 2.283 8.664 2.283 6.447 0 12.083-3.47 15.142-8.644l0.045-0.082c1.563-2.548 2.489-5.633 2.489-8.934 0-6.48-3.567-12.127-8.844-15.085l-0.087-0.045-9.685-6.016 9.685-5.163c5.332-3.054 8.866-8.711 8.866-15.193 0-3.272-0.9-6.334-2.467-8.951l0.044 0.079c-3.095-5.339-8.783-8.872-15.296-8.872-3.141 0-6.089 0.822-8.643 2.262l0.088-0.046-9.899 5.803zM296.363 99.328v0c-5.311 3.105-8.823 8.78-8.823 15.275 0 9.739 7.895 17.634 17.634 17.634 3.244 0 6.283-0.876 8.894-2.404l-0.083 0.045 9.685-5.803v11.776c0.477 9.421 8.231 16.879 17.728 16.879s17.251-7.458 17.726-16.837l0.002-0.042v-11.819l9.899 5.803c2.51 1.427 5.515 2.268 8.715 2.268 6.489 0 12.171-3.458 15.304-8.631l0.045-0.080c1.474-2.524 2.344-5.557 2.344-8.793 0-6.485-3.495-12.154-8.704-15.226l-0.082-0.045-9.685-6.016 9.685-5.163c5.365-3.115 8.915-8.834 8.915-15.381 0-9.79-7.936-17.726-17.726-17.726-3.242 0-6.281 0.87-8.895 2.39l0.085-0.045-9.899 5.803v-11.392c-0.477-9.421-8.231-16.879-17.728-16.879s-17.251 7.458-17.726 16.837l-0.002 0.042v11.392l-9.685-5.803c-2.53-1.474-5.569-2.345-8.811-2.345-9.79 0-17.726 7.936-17.726 17.726 0 6.548 3.55 12.266 8.831 15.336l0.085 0.045 9.685 5.163zM389.248 262.528v0l9.685-5.376-9.685-5.803c-5.194-3.149-8.612-8.772-8.612-15.193 0-3.267 0.885-6.327 2.428-8.955l-0.045 0.083c2.925-5.443 8.579-9.080 15.083-9.080 3.238 0 6.265 0.901 8.844 2.467l-0.076-0.043 9.899 5.803v-11.605c0 0 0-0.001 0-0.001 0-9.614 7.794-17.408 17.408-17.408 0.075 0 0.15 0 0.225 0.001h-0.011c0.076-0.001 0.167-0.002 0.257-0.002 9.649 0 17.482 7.774 17.578 17.401v11.614l9.685-5.803c2.503-1.523 5.53-2.424 8.768-2.424 6.504 0 12.158 3.638 15.038 8.99l0.045 0.091c1.536 2.554 2.445 5.637 2.445 8.932 0 6.419-3.448 12.032-8.594 15.088l-0.081 0.044-9.899 5.803 9.899 5.376c5.251 3.198 8.704 8.892 8.704 15.393 0 3.354-0.919 6.494-2.52 9.18l0.045-0.082c-3.159 5.143-8.754 8.521-15.138 8.521-3.203 0-6.207-0.85-8.799-2.338l0.086 0.046-9.685-5.589v10.965c0 0.026 0 0.057 0 0.089 0 9.732-7.889 17.621-17.621 17.621-0.12 0-0.24-0.001-0.359-0.004h0.018c-0.051 0.001-0.111 0.001-0.172 0.001-9.638 0-17.451-7.813-17.451-17.451 0-0.060 0-0.121 0.001-0.181v0.009-10.965l-9.899 5.589c-2.514 1.469-5.535 2.337-8.758 2.337-6.381 0-11.969-3.4-15.049-8.488l-0.044-0.078c-1.508-2.592-2.399-5.704-2.399-9.025 0-6.504 3.416-12.21 8.552-15.422l0.076-0.045zM616.832 214.87v0 11.605l9.899-5.803c2.516-1.49 5.546-2.37 8.781-2.37 6.547 0 12.251 3.605 15.237 8.938l0.045 0.088c1.404 2.49 2.231 5.467 2.231 8.636 0 6.554-3.535 12.282-8.803 15.382l-0.084 0.045-9.472 5.803 9.472 5.376c5.369 3.255 8.902 9.067 8.902 15.705 0 3.222-0.832 6.249-2.294 8.879l0.048-0.093c-3.207 5.156-8.842 8.537-15.267 8.537-3.233 0-6.266-0.856-8.885-2.354l0.088 0.046-9.899-5.589v10.965c0 9.732-7.889 17.621-17.621 17.621s-17.621-7.889-17.621-17.621v0-10.965l-9.685 5.589c-2.53 1.474-5.569 2.345-8.811 2.345-9.79 0-17.726-7.936-17.726-17.726 0-6.548 3.55-12.266 8.831-15.336l0.085-0.045 9.685-5.376-9.685-5.803c-5.365-3.115-8.915-8.834-8.915-15.381 0-9.79 7.936-17.726 17.726-17.726 3.242 0 6.281 0.87 8.895 2.39l-0.085-0.045 9.685 5.803v-11.605c0-9.732 7.889-17.621 17.621-17.621s17.621 7.889 17.621 17.621v0zM524.245 51.798v0c-0.072-9.748-7.991-17.622-17.749-17.622-0.030 0-0.060 0-0.090 0h0.005c-0.013 0-0.028 0-0.043 0-9.708 0-17.579 7.87-17.579 17.579 0 0.015 0 0.030 0 0.045v-0.002 11.392l-9.685-5.803c-2.415-1.306-5.286-2.074-8.336-2.074-9.826 0-17.792 7.966-17.792 17.792 0 6.303 3.278 11.841 8.222 15.002l0.071 0.043 9.899 5.163-9.899 6.016c-5.283 3.125-8.77 8.792-8.77 15.275 0 9.768 7.919 17.687 17.687 17.687 3.286 0 6.363-0.896 8.999-2.457l-0.082 0.045 9.685-5.803v11.776c0.144 9.631 7.973 17.385 17.619 17.408h0.002c9.693-0.020 17.573-7.751 17.834-17.384l0.001-0.024v-11.819l9.899 5.803c2.501 1.45 5.502 2.306 8.704 2.306 9.709 0 17.581-7.871 17.581-17.581 0-6.508-3.536-12.19-8.792-15.229l-0.085-0.045-9.899-6.016 9.899-5.163c5.394-3.095 8.969-8.82 8.969-15.381 0-9.761-7.913-17.673-17.673-17.673-3.2 0-6.201 0.85-8.79 2.337l0.086-0.046-9.899 5.803zM734.251 222.635c-0.099-0.001-0.217-0.002-0.334-0.002-16.478 0-30.295 11.391-34.006 26.728l-0.049 0.239c-0.701 2.651-1.104 5.694-1.104 8.831 0 16.554 11.21 30.49 26.452 34.631l0.251 0.058c13.958 3.764 26.154 8.837 37.483 15.26l-0.79-0.412c11.938 7.092 22.263 15.068 31.516 24.134l-0.028-0.027c13.414 13.671 24.37 29.81 32.118 47.664l0.394 1.019c6.999 16.794 11.112 36.296 11.221 56.746v0.043c0 0.019 0 0.042 0 0.064 0 40.929-16.618 77.977-43.474 104.764l-0.003 0.003-2.261 2.389c-12.693 12.344-27.674 22.414-44.234 29.505l-0.95 0.362-1.067 0.427c-16.806 7.31-36.384 11.563-56.955 11.563-0.137 0-0.274 0-0.41-0.001h-4.544l-5.291-0.213-5.632-0.853-4.949-0.853c-1.277-0.159-2.759-0.252-4.261-0.256h-0.005c-0.156-0.003-0.34-0.004-0.525-0.004-14.332 0-26.631 8.702-31.902 21.11l-0.086 0.227c-9.639 20.21-20.929 37.628-34.146 53.373l0.311-0.381-0.64 0.896c-13.315 15.732-28.475 29.305-45.297 40.593l-0.783 0.495-1.749 1.024c-16.928 11.619-36.517 21.066-57.485 27.312l-1.48 0.378c-19.276 6.088-41.449 9.624-64.438 9.685h-0.031c-31.215-0.094-60.941-6.356-88.059-17.631l1.531 0.564c-28.343-12.319-52.571-28.865-73.114-49.135l0.026 0.026c-20.207-20.403-36.667-44.561-48.232-71.328l-0.579-1.504c-10.554-25.216-16.686-54.518-16.686-85.253 0-0.418 0.001-0.836 0.003-1.254v0.064c-0.005-0.573-0.008-1.25-0.008-1.928 0-61.461 25.064-117.069 65.527-157.159l0.017-0.017c6.784-6.784 13.781-12.8 20.309-18.219 6.482-5.035 13.807-10.049 21.426-14.623l1.016-0.566c10.438-6.43 17.292-17.796 17.292-30.763 0-19.888-16.123-36.011-36.011-36.011-0.064 0-0.128 0-0.192 0.001h0.010c-0.018 0-0.038 0-0.059 0-6.902 0-13.34 1.986-18.774 5.419l0.145-0.085c-10.069 6.272-19.84 13.013-29.056 20.096-9.771 7.619-18.473 15.414-26.616 23.756l-0.050 0.052c-27.084 26.826-48.892 58.925-63.761 94.637l-0.708 1.918c-14.3 33.425-22.613 72.318-22.613 113.152 0 0.105 0 0.21 0 0.315v-0.017c0.030 40.916 8.244 79.906 23.092 115.432l-0.734-1.981c45.956 108.666 151.662 183.531 274.856 183.552h0.003c60.717-0.105 117.127-18.46 164.060-49.871l-1.073 0.676 1.621-0.896c23.174-15.797 43.229-33.683 60.73-53.846l0.326-0.383 0.725-0.768c11.726-13.97 22.721-29.49 32.401-45.879l0.879-1.609h3.328c0.192 0.001 0.419 0.001 0.646 0.001 30.193 0 58.95-6.149 85.087-17.264l-1.423 0.538 2.176-0.725c27.094-11.579 50.222-27.418 69.669-46.928l0.006-0.006c18.876-19.069 34.334-41.564 45.349-66.464l0.56-1.419h0.256l1.664-3.883c10.499-24.492 16.603-52.995 16.603-82.924 0-0.562-0.002-1.124-0.006-1.685l0.001 0.086c0.002-0.33 0.003-0.72 0.003-1.111 0-26.744-4.803-52.365-13.593-76.050l0.492 1.512h0.256l-3.712-8.789-1.707-3.925c-11.737-26.255-27.312-48.688-46.297-67.716l0.004 0.004c-27.073-27.099-61.194-47.152-99.378-57.174l-1.528-0.341c-2.681-0.733-5.764-1.168-8.944-1.195h-0.016z" />
</font>
</defs>
</svg>
