<svg xmlns="http://www.w3.org/2000/svg" xmlns:xlink="http://www.w3.org/1999/xlink" width="439.039" height="52.795" viewBox="0 0 439.039 52.795"><defs><clipPath id="a"><rect width="439.039" height="52.795" fill="none"/></clipPath></defs><g transform="translate(0 0)"><g transform="translate(0 0)" clip-path="url(#a)"><path d="M97.332,19.9a27.878,27.878,0,0,0-.265-3.948c-.391-2.41-.977-4.084-2.687-4.933-1.423-.7-2.952-.891-6.22-.884h-1.3c-3.264-.007-4.8.187-6.22.884-1.709.849-2.295,2.523-2.684,4.933A27.467,27.467,0,0,0,77.69,19.9a27.4,27.4,0,0,0,.267,3.946c.389,2.419.975,4.093,2.684,4.928,1.423.7,2.956.889,6.22.889h1.3c3.268,0,4.8-.188,6.22-.889,1.711-.835,2.3-2.509,2.687-4.928a27.845,27.845,0,0,0,.265-3.946m-4.288.2c0,2.617-.131,4.754-.725,5.35-.636.645-2.535.732-4.809.732s-4.168-.087-4.808-.732c-.6-.6-.727-2.732-.727-5.35V19.7c0-2.619.134-4.759.729-5.357.638-.635,2.535-.724,4.806-.724s4.173.089,4.809.724c.595.6.725,2.738.725,5.357Z" transform="translate(57.784 7.537)" fill="#1a1311"/><path d="M162.158,19.9a27.266,27.266,0,0,0-.269-3.948c-.387-2.41-.971-4.084-2.682-4.933-1.425-.7-2.956-.891-6.22-.884h-1.3c-3.268-.007-4.8.187-6.218.884-1.7.849-2.295,2.523-2.685,4.933a27.578,27.578,0,0,0-.269,3.948,27.507,27.507,0,0,0,.269,3.946c.391,2.419.982,4.093,2.685,4.928,1.423.7,2.95.889,6.218.889h1.3c3.264,0,4.8-.188,6.22-.889,1.711-.835,2.295-2.509,2.682-4.928a27.234,27.234,0,0,0,.269-3.946m-4.284.2c0,2.617-.133,4.754-.729,5.35-.637.645-2.534.732-4.808.732s-4.169-.087-4.808-.732c-.593-.6-.729-2.732-.729-5.35V19.7c0-2.619.136-4.759.731-5.357.636-.635,2.535-.724,4.806-.724s4.171.089,4.808.724c.6.6.729,2.738.729,5.357Z" transform="translate(105.998 7.537)" fill="#1a1311"/><path d="M149.4,19.9a27.373,27.373,0,0,0-.262-3.948c-.391-2.41-.98-4.084-2.689-4.933-1.423-.7-2.949-.891-6.22-.884h-1.3c-3.268-.007-4.8.187-6.218.884-1.707.849-2.3,2.523-2.687,4.933a29.519,29.519,0,0,0,0,7.894c.387,2.419.98,4.093,2.687,4.928,1.423.7,2.95.889,6.218.889h1.3c3.271,0,4.8-.188,6.22-.889,1.709-.835,2.3-2.509,2.689-4.928A27.341,27.341,0,0,0,149.4,19.9m-4.283.2c0,2.617-.131,4.754-.731,5.35-.635.645-2.534.732-4.8.732s-4.173-.087-4.811-.732c-.591-.6-.729-2.732-.729-5.35V19.7c0-2.619.138-4.759.729-5.357.638-.635,2.537-.724,4.811-.724s4.169.089,4.8.724c.6.6.731,2.738.731,5.357Z" transform="translate(96.509 7.537)" fill="#1a1311"/><path d="M94.882,10.32l-4.633,0a3.421,3.421,0,0,1,.947.895,1.064,1.064,0,0,1,.124.633V29.053h4.056l.03-12.74,10.154,12.74h3.686V10.32h-3.974l-.016,12.723Z" transform="translate(67.125 7.674)" fill="#1a1311"/><path d="M82.782,13.148c-1.979-2.809-5.613-2.809-7.791-2.809H64.945v18.7H75.584c7.38,0,8.892-3.463,8.892-9.348,0-3.887-.678-5.106-1.693-6.543M79.317,24.559c-.373.523-1.135,1.05-3.9,1.05H69.245V13.743h5.911c2.185,0,3.325.281,3.927.959.727.806,1.065,1.908,1.065,4.809,0,3.137-.239,4.23-.832,5.048" transform="translate(48.304 7.689)" fill="#1a1311"/><rect width="4.011" height="18.721" transform="translate(301.066 18.004)" fill="#1a1311"/><path d="M230.731,10.325v7.589H221.24V10.325h-4V29.034h4V20.915h9.491v8.119h4V10.325Z" transform="translate(161.576 7.679)" fill="#1a1311"/><path d="M250.154,21.66c.042-.155.131-.471.19-.673l3.515-10.661h2.835c.241,1.053,3.578,15.155,4.44,18.721h-4.187l-2.134-10.088c-.052-.2-.085-.478-.133-.659-.044.167-.113.48-.169.68l-3.369,10.055h-1.965l-3.362-10.055c-.063-.2-.129-.513-.173-.68-.047.181-.08.459-.136.659l-2.133,10.088h-4.18c.858-3.566,4.2-17.668,4.44-18.721h2.835l3.512,10.661c.061.2.145.518.192.673Z" transform="translate(177.907 7.679)" fill="#1a1311"/><path d="M177.625,13.818V10.325H161.988V29.034h3.99V21.162H176.42v-3.5H165.978V13.818Z" transform="translate(120.483 7.679)" fill="#1a1311"/><path d="M191.145,10.312l.024,12.145a5.675,5.675,0,0,0,.059.7c-.084-.119-.258-.33-.387-.488l-9.606-12.334h-4.609a3.485,3.485,0,0,1,.907.875,1.074,1.074,0,0,1,.124.628V29.056h4.1l-.03-12.112a7.464,7.464,0,0,0-.056-.752c.092.126.275.351.408.523l9.4,12.341h3.679V10.312Z" transform="translate(131.37 7.669)" fill="#1a1311"/><rect width="6.292" height="3.001" transform="translate(347.242 25.592)" fill="#1a1311"/><path d="M134.943,10.335,132.1,20.379c-.054.2-.122.509-.176.7-.033-.15-.1-.4-.162-.6L128.38,10.337h-2.023L123,20.431c-.063.209-.152.511-.188.67-.042-.19-.113-.506-.169-.7L119.8,10.335h-5.128a4.1,4.1,0,0,1,1.315,1.524c.232.7,5.338,17.157,5.338,17.157h2.331l3.568-10.435c.056-.159.112-.375.143-.493.03.1.085.326.133.485l3.576,10.443h2.34s5.106-16.456,5.332-17.157a4.143,4.143,0,0,1,1.318-1.524Z" transform="translate(85.29 7.686)" fill="#1a1311"/><path d="M204.557,29.03v-3.5h-11.2V20.914h9.992v-3h-9.992V13.826h11.2v-3.5h-15.2V29.03Z" transform="translate(140.839 7.678)" fill="#1a1311"/><path d="M244.584,29.03v-3.5h-11.2V20.914h9.992v-3h-9.992V13.826h11.2v-3.5h-15.2V29.03Z" transform="translate(170.61 7.678)" fill="#1a1311"/><path d="M122.7,19.166H109.522l8.8,3.683a4.789,4.789,0,0,1-.65,2.605c-.636.645-2.535.732-4.809.732s-4.168-.087-4.8-.732c-.595-.6-.727-2.732-.727-5.35V19.7c0-2.619.134-4.757.727-5.357.64-.635,2.534-.724,4.8-.724s4.173.089,4.809.724c.429.431.617,1.671.687,3.31h4.257c-.045-.567-.1-1.165-.2-1.7-.391-2.41-.977-4.084-2.685-4.933-1.426-.7-2.952-.891-6.218-.884h-1.3c-3.266-.007-4.794.187-6.217.884-1.707.849-2.3,2.523-2.685,4.933a26.98,26.98,0,0,0-.263,3.948,26.913,26.913,0,0,0,.263,3.946c.389,2.419.978,4.093,2.685,4.928,1.423.7,2.95.891,6.217.891h1.3c3.266,0,4.792-.19,6.218-.891,1.709-.835,2.295-2.509,2.685-4.928a28.308,28.308,0,0,0,.289-3.946c0-.023-.007-.734-.007-.734" transform="translate(76.643 7.537)" fill="#1a1311"/><path d="M219.357,22.193c-.077,1.613-.262,2.832-.689,3.261-.637.643-2.534.732-4.806.732s-4.171-.089-4.809-.732c-.595-.6-.727-2.734-.727-5.35V19.7c0-2.617.136-4.757.731-5.355.635-.636,2.532-.725,4.806-.725s4.169.089,4.806.725c.436.439.624,1.707.691,3.376h4.257c-.044-.586-.1-1.212-.2-1.765-.385-2.41-.973-4.084-2.684-4.933-1.421-.7-2.952-.891-6.216-.884h-1.3c-3.263-.007-4.794.185-6.222.884-1.705.849-2.293,2.523-2.684,4.933a27.738,27.738,0,0,0-.267,3.948,27.661,27.661,0,0,0,.267,3.944c.391,2.42.978,4.094,2.684,4.93,1.428.7,2.959.889,6.222.889h1.3c3.264,0,4.8-.188,6.216-.889,1.711-.835,2.3-2.509,2.684-4.93.092-.518.152-1.1.2-1.651Z" transform="translate(151.76 7.537)" fill="#1a1311"/><path d="M7.36,15.034c.5.206,1.343.541,2.488.949C13.3,9.166,28.217,6.957,42.054,10.912c8.717,2.483,16,7.505,19.823,13.049,7.882-.019,14.653-.521,18.076-3.4,2.164-2.056,1.36-3.944.844-5.27.045.04.078.077.119.115C75.195,9.865,66.279,5.539,55.023,3.03,33.032-1.851,11.51,3.2,7.36,15.034" transform="translate(5.474 0.877)" fill="#005bae"/><path d="M85.237,25.182c-4.462,1.962-12,3.615-23.944,3.174C56,33.795,44.52,35.561,32.831,31.94c-9.486-2.942-16.8-8.231-20.8-14.032-1.592-.743-2.949-1.437-4.063-2.045,4.457,9.3,16.8,18.257,32.727,22.634,22.219,6.1,42.541.806,46.217-13.3a20.788,20.788,0,0,0,.595-3.3,3.492,3.492,0,0,1-2.274,3.291" transform="translate(5.929 11.797)" fill="#005bae"/><path d="M93.5,33.212c.619-6.471-1.477-11.87-7.224-17.038.516,1.324,1.32,3.212-.844,5.27-4.464,3.751-14.632,3.463-25.534,3.334a140.417,140.417,0,0,1-47.108-8.883C11.635,15.4,4.8,12.053,4.724,8.358,4.524-.947,32.553.373,32.553.373S5.207-2.577.7,8.112c-3.723,8.857,8.461,16.7,9.338,17.249S27.47,37.408,58.377,39.523c17.2,1.8,27.321-.127,32.79-2.542,1.592-.818,2.1-1.456,2.33-3.768" transform="translate(0 -0.001)" fill="#d51a25"/></g></g></svg>